<svg width="48" height="48" viewBox="0 0 48 48" fill="none" xmlns="http://www.w3.org/2000/svg">
<g clip-path="url(#clip0_108_1556)">
<path d="M39.2498 34C38.7998 34 38.2498 34.26 37.4998 34.26C36.7498 34.26 36.1998 34 35.7498 34C35.5104 34.005 35.2744 34.0581 35.0558 34.156C34.8372 34.2539 34.6405 34.3947 34.4773 34.57C34.3142 34.7453 34.1878 34.9516 34.1058 35.1766C34.0238 35.4016 33.9877 35.6408 33.9998 35.88C34.0931 36.8063 34.3152 37.7151 34.6598 38.58C34.6315 39.8569 34.732 41.1333 34.9598 42.39C35.1898 43.39 35.4998 44 35.8798 44C36.2598 44 36.2298 42.76 36.3998 41.87C36.5698 40.98 36.9998 39.87 37.4998 39.87C37.9998 39.87 38.4298 41.01 38.5998 41.87C38.7698 42.73 38.7498 44 39.1298 44C39.5098 44 39.8098 43.34 40.0398 42.39C40.2676 41.1333 40.3681 39.8569 40.3398 38.58C40.6845 37.7151 40.9066 36.8063 40.9998 35.88C41.0119 35.6408 40.9759 35.4016 40.8939 35.1766C40.8119 34.9516 40.6855 34.7453 40.5223 34.57C40.3592 34.3947 40.1624 34.2539 39.9439 34.156C39.7253 34.0581 39.4893 34.005 39.2498 34Z" fill="#39A59F"/>
<path d="M30 2C29.17 0.25 26.46 0 24 0C18.08 0 14 2.79 14 8V11C14 19 18 26 24 26C30 26 34 19 34 11V8.83C34 6 33.63 2 30 2ZM32.25 11C32.25 18.43 28.63 24.25 24 24.25C19.37 24.25 15.75 18.43 15.75 11V10H16C24 10 28 8 28 8C28 8 30 10 32 10C32.0833 10.0042 32.1667 10.0042 32.25 10V11Z" fill="#035E5C"/>
<path d="M44 30.5C42.81 29.58 30.5 25 30.5 25L26 46V35L24.4 32L26 30L24 28L22 30L23.6 32L22 35V46L17.5 25C17.5 25 5.19 29.58 4 30.5C2.34 31.77 0 45 0 48H48C48 45 45.66 31.77 44 30.5ZM2.3 46C2.69 42.4 4.3 33.34 5.3 32.07C6.3 31.49 11.16 29.55 16.07 27.69L19.94 46H2.3ZM32 27.69C36.91 29.55 41.78 31.49 42.77 32.07C43.77 33.34 45.34 42.4 45.77 46H28.06L32 27.69Z" fill="#035E5C"/>
</g>
<defs>
<clipPath id="clip0_108_1556">
<rect width="48" height="48" fill="white"/>
</clipPath>
</defs>
</svg>
