<svg width="32" height="32" viewBox="0 0 32 32" fill="none" xmlns="http://www.w3.org/2000/svg">
<path fill-rule="evenodd" clip-rule="evenodd" d="M16.0013 0C11.656 0 11.1107 0.019 9.404 0.0966667C7.70067 0.174667 6.538 0.444333 5.52067 0.84C4.46833 1.24867 3.57567 1.79533 2.68633 2.685C1.79633 3.57433 1.24967 4.467 0.839667 5.519C0.443 6.53667 0.173 7.69967 0.0963333 9.40233C0.02 11.109 0 11.6547 0 16C0 20.3453 0.0193333 20.889 0.0966667 22.5957C0.175 24.299 0.444667 25.4617 0.84 26.479C1.249 27.5313 1.79567 28.424 2.68533 29.3133C3.57433 30.2033 4.467 30.7513 5.51867 31.16C6.53667 31.5557 7.69967 31.8253 9.40267 31.9033C11.1093 31.981 11.6543 32 15.9993 32C20.345 32 20.8887 31.981 22.5953 31.9033C24.2987 31.8253 25.4627 31.5557 26.4807 31.16C27.5327 30.7513 28.424 30.2033 29.313 29.3133C30.203 28.424 30.7497 27.5313 31.1597 26.4793C31.553 25.4617 31.823 24.2987 31.903 22.596C31.9797 20.8893 31.9997 20.3453 31.9997 16C31.9997 11.6547 31.9797 11.1093 31.903 9.40267C31.823 7.69933 31.553 6.53667 31.1597 5.51933C30.7497 4.467 30.203 3.57433 29.313 2.685C28.423 1.795 27.533 1.24833 26.4797 0.84C25.4597 0.444333 24.2963 0.174667 22.593 0.0966667C20.8863 0.019 20.343 0 15.9963 0H16.0013ZM14.5661 2.88356C14.9921 2.88289 15.4674 2.88356 16.0014 2.88356C20.2734 2.88356 20.7798 2.89889 22.4668 2.97556C24.0268 3.04689 24.8734 3.30756 25.4374 3.52656C26.1841 3.81656 26.7164 4.16322 27.2761 4.72322C27.8361 5.28322 28.1828 5.81656 28.4734 6.56322C28.6924 7.12656 28.9534 7.97322 29.0244 9.53322C29.1011 11.2199 29.1178 11.7266 29.1178 15.9966C29.1178 20.2666 29.1011 20.7732 29.0244 22.4599C28.9531 24.0199 28.6924 24.8666 28.4734 25.4299C28.1834 26.1766 27.8361 26.7082 27.2761 27.2679C26.7161 27.8279 26.1844 28.1746 25.4374 28.4646C24.8741 28.6846 24.0268 28.9446 22.4668 29.0159C20.7801 29.0926 20.2734 29.1092 16.0014 29.1092C11.7291 29.1092 11.2228 29.0926 9.5361 29.0159C7.9761 28.9439 7.12943 28.6832 6.5651 28.4642C5.81843 28.1742 5.2851 27.8276 4.7251 27.2676C4.1651 26.7076 3.81843 26.1756 3.52777 25.4286C3.30877 24.8652 3.04777 24.0186 2.97677 22.4586C2.9001 20.7719 2.88477 20.2652 2.88477 15.9926C2.88477 11.7199 2.9001 11.2159 2.97677 9.52922C3.0481 7.96922 3.30877 7.12256 3.52777 6.55856C3.81777 5.81189 4.1651 5.27856 4.7251 4.71856C5.2851 4.15856 5.81843 3.81189 6.5651 3.52122C7.1291 3.30122 7.9761 3.04122 9.5361 2.96956C11.0121 2.90289 11.5841 2.88289 14.5661 2.87956V2.88356ZM24.5424 5.54038C23.4824 5.54038 22.6224 6.39938 22.6224 7.45971C22.6224 8.51971 23.4824 9.37971 24.5424 9.37971C25.6024 9.37971 26.4624 8.51971 26.4624 7.45971C26.4624 6.39971 25.6024 5.53971 24.5424 5.53971V5.54038ZM16.0012 7.7832C11.4635 7.7832 7.78451 11.4622 7.78451 15.9999C7.78451 20.5375 11.4635 24.2149 16.0012 24.2149C20.5388 24.2149 24.2165 20.5375 24.2165 15.9999C24.2165 11.4622 20.5385 7.7832 16.0008 7.7832H16.0012ZM16.0013 10.6667C18.9466 10.6667 21.3346 13.0543 21.3346 16C21.3346 18.9453 18.9466 21.3333 16.0013 21.3333C13.0556 21.3333 10.668 18.9453 10.668 16C10.668 13.0543 13.0556 10.6667 16.0013 10.6667Z" fill="#005F5D"/>
</svg>
