<svg width="35" height="35" viewBox="0 0 35 35" fill="none" xmlns="http://www.w3.org/2000/svg">
<mask id="mask0_361_6221" style="mask-type:alpha" maskUnits="userSpaceOnUse" x="0" y="0" width="35" height="35">
<circle cx="17.4375" cy="17.5623" r="17.4375" fill="#39A59F"/>
</mask>
<g mask="url(#mask0_361_6221)">
<rect x="-1.125" y="0.124756" width="50.4" height="36" rx="3.61607" fill="white"/>
<mask id="mask1_361_6221" style="mask-type:luminance" maskUnits="userSpaceOnUse" x="-2" y="0" width="52" height="37">
<rect x="-1.125" y="0.124756" width="50.4" height="36" rx="3.61607" fill="white"/>
</mask>
<g mask="url(#mask1_361_6221)">
<path fill-rule="evenodd" clip-rule="evenodd" d="M49.275 0.124756H-1.125V2.52476H49.275V0.124756ZM49.275 4.92488H-1.125V7.32488H49.275V4.92488ZM-1.125 9.7243H49.275V12.1243H-1.125V9.7243ZM49.275 14.5248H-1.125V16.9248H49.275V14.5248ZM-1.125 19.3249H49.275V21.7249H-1.125V19.3249ZM49.275 24.1247H-1.125V26.5247H49.275V24.1247ZM-1.125 28.9248H49.275V31.3248H-1.125V28.9248ZM49.275 33.7249H-1.125V36.1249H49.275V33.7249Z" fill="#D02F44"/>
<rect x="-1.125" y="0.124756" width="21.6" height="16.8" fill="#46467F"/>
<g filter="url(#filter0_d_361_6221)">
<path fill-rule="evenodd" clip-rule="evenodd" d="M8.47466 3.72466C8.47466 4.3874 7.9374 4.92466 7.27466 4.92466C6.61192 4.92466 6.07466 4.3874 6.07466 3.72466C6.07466 3.06192 6.61192 2.52466 7.27466 2.52466C7.9374 2.52466 8.47466 3.06192 8.47466 3.72466ZM3.67539 3.72467C3.67539 4.38742 3.13813 4.92467 2.47539 4.92467C1.81265 4.92467 1.27539 4.38742 1.27539 3.72467C1.27539 3.06193 1.81265 2.52467 2.47539 2.52467C3.13813 2.52467 3.67539 3.06193 3.67539 3.72467ZM12.0758 4.92466C12.7386 4.92466 13.2758 4.3874 13.2758 3.72466C13.2758 3.06192 12.7386 2.52466 12.0758 2.52466C11.4131 2.52466 10.8758 3.06192 10.8758 3.72466C10.8758 4.3874 11.4131 4.92466 12.0758 4.92466ZM18.0756 3.72466C18.0756 4.3874 17.5384 4.92466 16.8756 4.92466C16.2129 4.92466 15.6756 4.3874 15.6756 3.72466C15.6756 3.06192 16.2129 2.52466 16.8756 2.52466C17.5384 2.52466 18.0756 3.06192 18.0756 3.72466ZM4.87548 7.3249C5.53822 7.3249 6.07548 6.78764 6.07548 6.1249C6.07548 5.46216 5.53822 4.9249 4.87548 4.9249C4.21274 4.9249 3.67548 5.46216 3.67548 6.1249C3.67548 6.78764 4.21274 7.3249 4.87548 7.3249ZM10.876 6.1249C10.876 6.78764 10.3387 7.3249 9.67596 7.3249C9.01322 7.3249 8.47596 6.78764 8.47596 6.1249C8.47596 5.46216 9.01322 4.9249 9.67596 4.9249C10.3387 4.9249 10.876 5.46216 10.876 6.1249ZM14.475 7.3249C15.1378 7.3249 15.675 6.78764 15.675 6.1249C15.675 5.46216 15.1378 4.9249 14.475 4.9249C13.8123 4.9249 13.275 5.46216 13.275 6.1249C13.275 6.78764 13.8123 7.3249 14.475 7.3249ZM18.0756 8.52478C18.0756 9.18753 17.5384 9.72478 16.8756 9.72478C16.2129 9.72478 15.6756 9.18753 15.6756 8.52478C15.6756 7.86204 16.2129 7.32478 16.8756 7.32478C17.5384 7.32478 18.0756 7.86204 18.0756 8.52478ZM12.0758 9.72478C12.7386 9.72478 13.2758 9.18753 13.2758 8.52478C13.2758 7.86204 12.7386 7.32478 12.0758 7.32478C11.4131 7.32478 10.8758 7.86204 10.8758 8.52478C10.8758 9.18753 11.4131 9.72478 12.0758 9.72478ZM8.47466 8.52478C8.47466 9.18753 7.9374 9.72478 7.27466 9.72478C6.61192 9.72478 6.07466 9.18753 6.07466 8.52478C6.07466 7.86204 6.61192 7.32478 7.27466 7.32478C7.9374 7.32478 8.47466 7.86204 8.47466 8.52478ZM2.47559 9.72478C3.13833 9.72478 3.67559 9.18753 3.67559 8.52478C3.67559 7.86204 3.13833 7.32478 2.47559 7.32478C1.81285 7.32478 1.27559 7.86204 1.27559 8.52478C1.27559 9.18753 1.81285 9.72478 2.47559 9.72478ZM6.07548 10.9247C6.07548 11.5874 5.53822 12.1247 4.87548 12.1247C4.21274 12.1247 3.67548 11.5874 3.67548 10.9247C3.67548 10.2619 4.21274 9.72467 4.87548 9.72467C5.53822 9.72467 6.07548 10.2619 6.07548 10.9247ZM9.67596 12.1247C10.3387 12.1247 10.876 11.5874 10.876 10.9247C10.876 10.2619 10.3387 9.72467 9.67596 9.72467C9.01322 9.72467 8.47596 10.2619 8.47596 10.9247C8.47596 11.5874 9.01322 12.1247 9.67596 12.1247ZM15.675 10.9247C15.675 11.5874 15.1378 12.1247 14.475 12.1247C13.8123 12.1247 13.275 11.5874 13.275 10.9247C13.275 10.2619 13.8123 9.72467 14.475 9.72467C15.1378 9.72467 15.675 10.2619 15.675 10.9247ZM16.8756 14.5246C17.5384 14.5246 18.0756 13.9873 18.0756 13.3246C18.0756 12.6618 17.5384 12.1246 16.8756 12.1246C16.2129 12.1246 15.6756 12.6618 15.6756 13.3246C15.6756 13.9873 16.2129 14.5246 16.8756 14.5246ZM13.2758 13.3246C13.2758 13.9873 12.7386 14.5246 12.0758 14.5246C11.4131 14.5246 10.8758 13.9873 10.8758 13.3246C10.8758 12.6618 11.4131 12.1246 12.0758 12.1246C12.7386 12.1246 13.2758 12.6618 13.2758 13.3246ZM7.27466 14.5246C7.9374 14.5246 8.47466 13.9873 8.47466 13.3246C8.47466 12.6618 7.9374 12.1246 7.27466 12.1246C6.61192 12.1246 6.07466 12.6618 6.07466 13.3246C6.07466 13.9873 6.61192 14.5246 7.27466 14.5246ZM3.67559 13.3246C3.67559 13.9873 3.13833 14.5246 2.47559 14.5246C1.81285 14.5246 1.27559 13.9873 1.27559 13.3246C1.27559 12.6618 1.81285 12.1246 2.47559 12.1246C3.13833 12.1246 3.67559 12.6618 3.67559 13.3246Z" fill="url(#paint0_linear_361_6221)"/>
</g>
</g>
<rect x="-7.42451" y="-0.55" width="49.5" height="35.1" rx="3.15" fill="white" stroke="#F5F5F5" stroke-width="0.9"/>
<mask id="mask2_361_6221" style="mask-type:luminance" maskUnits="userSpaceOnUse" x="-8" y="-1" width="51" height="36">
<rect x="-7.42451" y="-0.55" width="49.5" height="35.1" rx="3.15" fill="white" stroke="white" stroke-width="0.9"/>
</mask>
<g mask="url(#mask2_361_6221)">
<path fill-rule="evenodd" clip-rule="evenodd" d="M-7.87451 6.2H42.5255V-1H-7.87451V6.2Z" fill="#0E46D4"/>
<path fill-rule="evenodd" clip-rule="evenodd" d="M-7.87451 35H42.5255V27.8H-7.87451V35Z" fill="#0E46D4"/>
<path d="M10.8005 20.3087L10.3053 21.2001L11.325 21.2001L23.325 21.2001L24.3447 21.2001L23.8495 20.3087L17.8495 9.50868L17.325 8.56459L16.8005 9.50868L10.8005 20.3087Z" stroke="#093EC5" stroke-width="1.2"/>
<path d="M10.8005 13.6913L10.3053 12.7999L11.325 12.7999L23.325 12.7999L24.3447 12.7999L23.8495 13.6913L17.8495 24.4913L17.325 25.4354L16.8005 24.4913L10.8005 13.6913Z" stroke="#093EC5" stroke-width="1.2"/>
</g>
</g>
<defs>
<filter id="filter0_d_361_6221" x="1.27539" y="2.52466" width="16.8003" height="13.808" filterUnits="userSpaceOnUse" color-interpolation-filters="sRGB">
<feFlood flood-opacity="0" result="BackgroundImageFix"/>
<feColorMatrix in="SourceAlpha" type="matrix" values="0 0 0 0 0 0 0 0 0 0 0 0 0 0 0 0 0 0 127 0" result="hardAlpha"/>
<feOffset dy="1.80804"/>
<feColorMatrix type="matrix" values="0 0 0 0 0 0 0 0 0 0 0 0 0 0 0 0 0 0 0.06 0"/>
<feBlend mode="normal" in2="BackgroundImageFix" result="effect1_dropShadow_361_6221"/>
<feBlend mode="normal" in="SourceGraphic" in2="effect1_dropShadow_361_6221" result="shape"/>
</filter>
<linearGradient id="paint0_linear_361_6221" x1="1.27539" y1="2.52466" x2="1.27539" y2="14.5247" gradientUnits="userSpaceOnUse">
<stop stop-color="white"/>
<stop offset="1" stop-color="#F0F0F0"/>
</linearGradient>
</defs>
</svg>
