<svg width="36" height="35" viewBox="0 0 36 35" fill="none" xmlns="http://www.w3.org/2000/svg">
<mask id="mask0_361_6216" style="mask-type:alpha" maskUnits="userSpaceOnUse" x="0" y="0" width="36" height="35">
<circle cx="18.3125" cy="17.4375" r="17.4375" fill="#39A59F"/>
</mask>
<g mask="url(#mask0_361_6216)">
<rect x="-0.25" width="50.4" height="36" rx="3.61607" fill="white"/>
<mask id="mask1_361_6216" style="mask-type:luminance" maskUnits="userSpaceOnUse" x="-1" y="0" width="52" height="36">
<rect x="-0.25" width="50.4" height="36" rx="3.61607" fill="white"/>
</mask>
<g mask="url(#mask1_361_6216)">
<path fill-rule="evenodd" clip-rule="evenodd" d="M50.15 0H-0.25V2.4H50.15V0ZM50.15 4.80013H-0.25V7.20013H50.15V4.80013ZM-0.25 9.59954H50.15V11.9995H-0.25V9.59954ZM50.15 14.4H-0.25V16.8H50.15V14.4ZM-0.25 19.2001H50.15V21.6001H-0.25V19.2001ZM50.15 23.9999H-0.25V26.3999H50.15V23.9999ZM-0.25 28.8H50.15V31.2H-0.25V28.8ZM50.15 33.6002H-0.25V36.0002H50.15V33.6002Z" fill="#D02F44"/>
<rect x="-0.25" width="21.6" height="16.8" fill="#46467F"/>
<g filter="url(#filter0_d_361_6216)">
<path fill-rule="evenodd" clip-rule="evenodd" d="M9.34966 3.5999C9.34966 4.26264 8.8124 4.7999 8.14966 4.7999C7.48692 4.7999 6.94966 4.26264 6.94966 3.5999C6.94966 2.93716 7.48692 2.3999 8.14966 2.3999C8.8124 2.3999 9.34966 2.93716 9.34966 3.5999ZM4.55039 3.59992C4.55039 4.26266 4.01313 4.79992 3.35039 4.79992C2.68765 4.79992 2.15039 4.26266 2.15039 3.59992C2.15039 2.93718 2.68765 2.39992 3.35039 2.39992C4.01313 2.39992 4.55039 2.93718 4.55039 3.59992ZM12.9508 4.7999C13.6136 4.7999 14.1508 4.26264 14.1508 3.5999C14.1508 2.93716 13.6136 2.3999 12.9508 2.3999C12.2881 2.3999 11.7508 2.93716 11.7508 3.5999C11.7508 4.26264 12.2881 4.7999 12.9508 4.7999ZM18.9506 3.5999C18.9506 4.26264 18.4134 4.7999 17.7506 4.7999C17.0879 4.7999 16.5506 4.26264 16.5506 3.5999C16.5506 2.93716 17.0879 2.3999 17.7506 2.3999C18.4134 2.3999 18.9506 2.93716 18.9506 3.5999ZM5.75048 7.20014C6.41322 7.20014 6.95048 6.66288 6.95048 6.00014C6.95048 5.3374 6.41322 4.80014 5.75048 4.80014C5.08774 4.80014 4.55048 5.3374 4.55048 6.00014C4.55048 6.66288 5.08774 7.20014 5.75048 7.20014ZM11.751 6.00014C11.751 6.66288 11.2137 7.20014 10.551 7.20014C9.88822 7.20014 9.35096 6.66288 9.35096 6.00014C9.35096 5.3374 9.88822 4.80014 10.551 4.80014C11.2137 4.80014 11.751 5.3374 11.751 6.00014ZM15.35 7.20014C16.0128 7.20014 16.55 6.66288 16.55 6.00014C16.55 5.3374 16.0128 4.80014 15.35 4.80014C14.6873 4.80014 14.15 5.3374 14.15 6.00014C14.15 6.66288 14.6873 7.20014 15.35 7.20014ZM18.9506 8.40003C18.9506 9.06277 18.4134 9.60003 17.7506 9.60003C17.0879 9.60003 16.5506 9.06277 16.5506 8.40003C16.5506 7.73729 17.0879 7.20003 17.7506 7.20003C18.4134 7.20003 18.9506 7.73729 18.9506 8.40003ZM12.9508 9.60003C13.6136 9.60003 14.1508 9.06277 14.1508 8.40003C14.1508 7.73729 13.6136 7.20003 12.9508 7.20003C12.2881 7.20003 11.7508 7.73729 11.7508 8.40003C11.7508 9.06277 12.2881 9.60003 12.9508 9.60003ZM9.34966 8.40003C9.34966 9.06277 8.8124 9.60003 8.14966 9.60003C7.48692 9.60003 6.94966 9.06277 6.94966 8.40003C6.94966 7.73729 7.48692 7.20003 8.14966 7.20003C8.8124 7.20003 9.34966 7.73729 9.34966 8.40003ZM3.35059 9.60003C4.01333 9.60003 4.55059 9.06277 4.55059 8.40003C4.55059 7.73729 4.01333 7.20003 3.35059 7.20003C2.68785 7.20003 2.15059 7.73729 2.15059 8.40003C2.15059 9.06277 2.68785 9.60003 3.35059 9.60003ZM6.95048 10.7999C6.95048 11.4627 6.41322 11.9999 5.75048 11.9999C5.08774 11.9999 4.55048 11.4627 4.55048 10.7999C4.55048 10.1372 5.08774 9.59991 5.75048 9.59991C6.41322 9.59991 6.95048 10.1372 6.95048 10.7999ZM10.551 11.9999C11.2137 11.9999 11.751 11.4627 11.751 10.7999C11.751 10.1372 11.2137 9.59991 10.551 9.59991C9.88822 9.59991 9.35096 10.1372 9.35096 10.7999C9.35096 11.4627 9.88822 11.9999 10.551 11.9999ZM16.55 10.7999C16.55 11.4627 16.0128 11.9999 15.35 11.9999C14.6873 11.9999 14.15 11.4627 14.15 10.7999C14.15 10.1372 14.6873 9.59991 15.35 9.59991C16.0128 9.59991 16.55 10.1372 16.55 10.7999ZM17.7506 14.3998C18.4134 14.3998 18.9506 13.8625 18.9506 13.1998C18.9506 12.5371 18.4134 11.9998 17.7506 11.9998C17.0879 11.9998 16.5506 12.5371 16.5506 13.1998C16.5506 13.8625 17.0879 14.3998 17.7506 14.3998ZM14.1508 13.1998C14.1508 13.8625 13.6136 14.3998 12.9508 14.3998C12.2881 14.3998 11.7508 13.8625 11.7508 13.1998C11.7508 12.5371 12.2881 11.9998 12.9508 11.9998C13.6136 11.9998 14.1508 12.5371 14.1508 13.1998ZM8.14966 14.3998C8.8124 14.3998 9.34966 13.8625 9.34966 13.1998C9.34966 12.5371 8.8124 11.9998 8.14966 11.9998C7.48692 11.9998 6.94966 12.5371 6.94966 13.1998C6.94966 13.8625 7.48692 14.3998 8.14966 14.3998ZM4.55059 13.1998C4.55059 13.8625 4.01333 14.3998 3.35059 14.3998C2.68785 14.3998 2.15059 13.8625 2.15059 13.1998C2.15059 12.5371 2.68785 11.9998 3.35059 11.9998C4.01333 11.9998 4.55059 12.5371 4.55059 13.1998Z" fill="url(#paint0_linear_361_6216)"/>
</g>
</g>
<rect x="-6.55049" y="22.95" width="49.5" height="35.1" rx="3.15" fill="white" stroke="#F5F5F5" stroke-width="0.9"/>
<mask id="mask2_361_6216" style="mask-type:luminance" maskUnits="userSpaceOnUse" x="-8" y="22" width="52" height="37">
<rect x="-6.55049" y="22.95" width="49.5" height="35.1" rx="3.15" fill="white" stroke="white" stroke-width="0.9"/>
</mask>
<g mask="url(#mask2_361_6216)">
<path fill-rule="evenodd" clip-rule="evenodd" d="M-7.00049 29.7H43.3995V22.5H-7.00049V29.7Z" fill="#0E46D4"/>
<path d="M11.6745 43.8087L11.1793 44.7001L12.199 44.7001L24.199 44.7001L25.2187 44.7001L24.7235 43.8087L18.7235 33.0087L18.199 32.0646L17.6745 33.0087L11.6745 43.8087Z" stroke="#093EC5" stroke-width="1.2"/>
<path d="M11.6745 37.1913L11.1793 36.2999L12.199 36.2999L24.199 36.2999L25.2187 36.2999L24.7235 37.1913L18.7235 47.9913L18.199 48.9354L17.6745 47.9913L11.6745 37.1913Z" stroke="#093EC5" stroke-width="1.2"/>
</g>
<rect x="-6.54848" y="0.452009" width="49.496" height="35.096" rx="3.16406" fill="white" stroke="#F5F5F5" stroke-width="0.904018"/>
<mask id="mask3_361_6216" style="mask-type:luminance" maskUnits="userSpaceOnUse" x="-8" y="0" width="52" height="36">
<rect x="-6.09647" y="0.904018" width="48.592" height="34.192" rx="2.71205" fill="white" stroke="white" stroke-width="1.80804"/>
</mask>
<g mask="url(#mask3_361_6216)">
<path fill-rule="evenodd" clip-rule="evenodd" d="M18.2003 26.3996C22.8395 26.3996 26.6003 22.6388 26.6003 17.9996C26.6003 13.3604 22.8395 9.59961 18.2003 9.59961C13.5611 9.59961 9.80029 13.3604 9.80029 17.9996C9.80029 22.6388 13.5611 26.3996 18.2003 26.3996Z" fill="#E01B41"/>
<mask id="mask4_361_6216" style="mask-type:luminance" maskUnits="userSpaceOnUse" x="9" y="9" width="18" height="18">
<path fill-rule="evenodd" clip-rule="evenodd" d="M18.2003 26.3996C22.8395 26.3996 26.6003 22.6388 26.6003 17.9996C26.6003 13.3604 22.8395 9.59961 18.2003 9.59961C13.5611 9.59961 9.80029 13.3604 9.80029 17.9996C9.80029 22.6388 13.5611 26.3996 18.2003 26.3996Z" fill="white"/>
</mask>
<g mask="url(#mask4_361_6216)">
<path fill-rule="evenodd" clip-rule="evenodd" d="M9.79909 19.1995C12.1991 21.4495 15.7991 22.7995 18.1991 19.1995C20.5991 15.5995 25.3991 15.5995 26.5991 19.1995C27.7991 22.7995 26.5991 26.3995 26.5991 26.3995H9.79909C9.79909 26.3995 7.39909 16.9495 9.79909 19.1995Z" fill="#0E4B9C"/>
</g>
<path opacity="0.75" fill-rule="evenodd" clip-rule="evenodd" d="M30.4315 6.78095C30.1432 6.94737 30.0445 7.31597 30.2109 7.60422L33.2082 12.7957C33.3746 13.084 33.7432 13.1828 34.0315 13.0163L35.0661 12.419C35.3543 12.2526 35.4531 11.884 35.2867 11.5957L32.2894 6.40422C32.1229 6.11597 31.7543 6.0172 31.4661 6.18363L30.4315 6.78095ZM27.314 8.58086C27.0258 8.74729 26.927 9.11588 27.0934 9.40414L30.0908 14.5957C30.2572 14.8839 30.6258 14.9827 30.914 14.8162L31.9486 14.2189C32.2369 14.0525 32.3356 13.6839 32.1692 13.3956L29.1719 8.20414C29.0055 7.91588 28.6369 7.81712 28.3486 7.98354L27.314 8.58086ZM1.11209 24.4041C0.945669 24.1159 1.04443 23.7473 1.33269 23.5809L2.36728 22.9835C2.65554 22.8171 3.02413 22.9159 3.19055 23.2041L6.18788 28.3956C6.3543 28.6839 6.25554 29.0525 5.96728 29.2189L4.93269 29.8162C4.64443 29.9827 4.27584 29.8839 4.10942 29.5956L1.11209 24.4041ZM4.45014 21.7809C4.16188 21.9474 4.06312 22.316 4.22954 22.6042L7.22687 27.7957C7.39329 28.084 7.76188 28.1827 8.05014 28.0163L9.08473 27.419C9.37299 27.2526 9.47175 26.884 9.30533 26.5957L6.30801 21.4042C6.14158 21.116 5.77299 21.0172 5.48473 21.1836L4.45014 21.7809ZM30.0906 21.4043C30.257 21.116 30.6256 21.0173 30.9139 21.1837L31.9485 21.781C32.2367 21.9474 32.3355 22.316 32.1691 22.6043L29.1717 27.7958C29.0053 28.084 28.6367 28.1828 28.3485 28.0164L27.3139 27.4191C27.0256 27.2526 26.9268 26.884 27.0933 26.5958L30.0906 21.4043ZM34.032 22.9839C33.7438 22.8175 33.3752 22.9163 33.2087 23.2045L30.2114 28.3961C30.045 28.6843 30.1438 29.0529 30.432 29.2193L31.4666 29.8167C31.7549 29.9831 32.1235 29.8843 32.2899 29.5961L35.2872 24.4045C35.4536 24.1163 35.3549 23.7477 35.0666 23.5813L34.032 22.9839ZM4.10995 6.40428C4.27638 6.11602 4.64497 6.01726 4.93323 6.18368L5.96782 6.78101C6.25607 6.94743 6.35484 7.31602 6.18841 7.60428L3.19109 12.7958C3.02467 13.084 2.65607 13.1828 2.36782 13.0164L1.33322 12.4191C1.04497 12.2526 0.946204 11.884 1.11263 11.5958L4.10995 6.40428ZM8.04997 7.98325C7.76171 7.81682 7.39312 7.91559 7.22669 8.20384L4.22937 13.3954C4.06295 13.6836 4.16171 14.0522 4.44997 14.2186L5.48456 14.816C5.77282 14.9824 6.14141 14.8836 6.30783 14.5954L9.30516 9.40384C9.47158 9.11558 9.37282 8.74699 9.08456 8.58057L8.04997 7.98325Z" fill="#262626"/>
</g>
</g>
<defs>
<filter id="filter0_d_361_6216" x="2.15039" y="2.3999" width="16.8003" height="13.808" filterUnits="userSpaceOnUse" color-interpolation-filters="sRGB">
<feFlood flood-opacity="0" result="BackgroundImageFix"/>
<feColorMatrix in="SourceAlpha" type="matrix" values="0 0 0 0 0 0 0 0 0 0 0 0 0 0 0 0 0 0 127 0" result="hardAlpha"/>
<feOffset dy="1.80804"/>
<feColorMatrix type="matrix" values="0 0 0 0 0 0 0 0 0 0 0 0 0 0 0 0 0 0 0.06 0"/>
<feBlend mode="normal" in2="BackgroundImageFix" result="effect1_dropShadow_361_6216"/>
<feBlend mode="normal" in="SourceGraphic" in2="effect1_dropShadow_361_6216" result="shape"/>
</filter>
<linearGradient id="paint0_linear_361_6216" x1="2.15039" y1="2.3999" x2="2.15039" y2="14.3999" gradientUnits="userSpaceOnUse">
<stop stop-color="white"/>
<stop offset="1" stop-color="#F0F0F0"/>
</linearGradient>
</defs>
</svg>
