<svg width="108" height="37" viewBox="0 0 108 37" fill="none" xmlns="http://www.w3.org/2000/svg">
<g clip-path="url(#clip0_325_10150)">
<path d="M17.5639 7.73787V0.427979H20.2725V17.7693H17.5639V10.4443H10.3711V7.73787H17.5639Z" fill="#39A59F"/>
<path d="M24.9823 0.427979V17.7693H22.27V0.427979H24.9823Z" fill="#39A59F"/>
<path d="M42.1571 7.73777H44.9577C45.0223 8.18753 45.0549 8.64131 45.0553 9.09569C45.0741 10.2869 44.8486 11.4694 44.3928 12.57C43.9369 13.6706 43.2604 14.666 42.4049 15.4947C41.5665 16.3359 40.5705 17.0033 39.474 17.4587C38.3774 17.9141 37.2018 18.1485 36.0145 18.1485C34.8272 18.1485 33.6516 17.9141 32.555 17.4587C31.4585 17.0033 30.4625 16.3359 29.6241 15.4947C28.769 14.6657 28.0927 13.6703 27.6369 12.5697C27.181 11.4692 26.9553 10.2869 26.9737 9.09569C26.9551 7.90644 27.1808 6.72604 27.6367 5.6276C28.0926 4.52916 28.769 3.53608 29.6241 2.70987C30.4627 1.86911 31.4588 1.20209 32.5553 0.746982C33.6519 0.291875 34.8274 0.0576172 36.0145 0.0576172C37.2016 0.0576172 38.3771 0.291875 39.4737 0.746982C40.5702 1.20209 41.5663 1.86911 42.4049 2.70987C43.2418 3.53818 43.906 4.52451 44.3589 5.61166H41.2486C41.0145 5.27083 40.7521 4.9504 40.464 4.65379C39.8798 4.06902 39.1861 3.60516 38.4226 3.28868C37.6592 2.9722 36.8409 2.80931 36.0145 2.80931C35.1881 2.80931 34.3698 2.9722 33.6064 3.28868C32.8429 3.60516 32.1492 4.06902 31.565 4.65379C30.9709 5.22967 30.501 5.92125 30.1843 6.68585C29.8676 7.45046 29.7108 8.27188 29.7236 9.09945C29.7101 9.92878 29.8666 10.7521 30.1833 11.5186C30.4999 12.2851 30.9702 12.9786 31.565 13.5564C32.1492 14.1411 32.8429 14.605 33.6064 14.9215C34.3698 15.238 35.1881 15.4009 36.0145 15.4009C36.8409 15.4009 37.6592 15.238 38.4226 14.9215C39.1861 14.605 39.8798 14.1411 40.464 13.5564C41.308 12.7028 41.8937 11.6278 42.1534 10.4555H35.4223V7.73777H42.1571Z" fill="#39A59F"/>
<path d="M56.9539 7.73787V0.427979H59.6662V17.7693H56.9539V10.4443H49.7592V17.7693H47.0469V0.427979H49.7592V7.73787H56.9539Z" fill="#39A59F"/>
<path d="M70.0142 14.1256L75.4577 0.427979H78.369L71.4877 17.7693H68.5389L61.6558 0.427979H64.5708L70.0142 14.1256Z" fill="#39A59F"/>
<path d="M83.0746 0.427979V17.7693H80.3623V0.427979H83.0746Z" fill="#39A59F"/>
<path d="M95.0841 17.7693H85.0645V0.427979H87.7787V15.0609H95.0841V17.7693Z" fill="#39A59F"/>
<path d="M107.093 17.7693H97.0737V0.427979H99.7879V15.0609H107.093V17.7693Z" fill="#39A59F"/>
<path d="M13.4008 24.76C14.5271 25.6519 15.3258 26.8924 15.672 28.2872H12.9034C12.1338 26.7847 10.9725 26.0334 9.41959 26.0334C8.41345 26.0339 7.44855 26.4335 6.7364 27.1447C6.02424 27.8559 5.62294 28.8206 5.62046 29.8273C5.61873 30.3276 5.71573 30.8232 5.9059 31.2858C6.09608 31.7485 6.37567 32.169 6.72865 32.5232C7.08163 32.8774 7.50105 33.1585 7.96283 33.3501C8.42461 33.5418 8.91967 33.6403 9.41959 33.6401C10.9738 33.6401 12.1351 32.8888 12.9034 31.3862H15.672C15.3256 32.7799 14.5268 34.0191 13.4008 34.9097C12.2756 35.8201 10.8665 36.306 9.41959 36.2827C8.57174 36.2964 7.73009 36.1357 6.9468 35.8107C6.1635 35.4857 5.45524 35.0033 4.86588 34.3932C3.66154 33.1833 2.98535 31.5453 2.98535 29.8377C2.98535 28.1301 3.66154 26.492 4.86588 25.2821C5.45621 24.6741 6.1649 24.1937 6.94815 23.8707C7.7314 23.5476 8.57255 23.3888 9.41959 23.404C10.8643 23.3765 12.2729 23.8563 13.4008 24.76Z" fill="#005F5D"/>
<path d="M20.2609 19.1348V36.0591H17.6143V19.1348H20.2609Z" fill="#005F5D"/>
<path d="M25.0332 19.6209C25.19 19.7742 25.3138 19.9578 25.3971 20.1607C25.4803 20.3635 25.5213 20.5812 25.5175 20.8004C25.5156 21.1838 25.3811 21.5548 25.1367 21.8501C24.8924 22.1454 24.5533 22.3469 24.1772 22.4203C23.8011 22.4936 23.4112 22.4343 23.0738 22.2524C22.7365 22.0706 22.4726 21.7773 22.327 21.4227C22.1814 21.068 22.1631 20.6739 22.2752 20.3072C22.3873 19.9406 22.6229 19.6241 22.9419 19.4117C23.2609 19.1994 23.6437 19.1041 24.0249 19.1423C24.4062 19.1804 24.7625 19.3496 25.0332 19.6209ZM25.1909 36.0588H22.5255V23.9671H25.1909V36.0588Z" fill="#005F5D"/>
<path d="M40.0507 30.3735V36.0588H37.3665V30.3735C37.3744 29.8849 37.2827 29.3997 37.0972 28.9477C36.9116 28.4956 36.636 28.0861 36.2872 27.744C35.4939 27.0141 34.6317 26.6491 33.7006 26.6491C32.7696 26.6491 31.9081 27.0141 31.116 27.744C30.5967 28.2689 30.2452 28.9364 30.1061 29.6617V36.0475H27.4595V23.967H30.1061V25.0601C31.3115 24.21 32.7772 23.8111 34.2469 23.9332C35.8398 24.0906 37.3169 24.8362 38.39 26.0246C39.4631 27.2129 40.0552 28.7588 40.0507 30.3603V30.3735Z" fill="#005F5D"/>
<path d="M44.8223 19.6209C44.979 19.7742 45.1028 19.9578 45.1861 20.1607C45.2694 20.3635 45.3104 20.5812 45.3065 20.8004C45.3047 21.1838 45.1701 21.5548 44.9258 21.8501C44.6814 22.1454 44.3423 22.3469 43.9662 22.4203C43.5901 22.4936 43.2002 22.4343 42.8629 22.2524C42.5256 22.0706 42.2616 21.7773 42.116 21.4227C41.9704 21.068 41.9521 20.6739 42.0642 20.3072C42.1764 19.9406 42.412 19.6241 42.731 19.4117C43.05 19.1994 43.4327 19.1041 43.814 19.1423C44.1953 19.1804 44.5516 19.3496 44.8223 19.6209ZM44.9799 36.0588H42.3202V23.9671H44.9799V36.0588Z" fill="#005F5D"/>
<path d="M57.6666 24.7598C58.7924 25.6518 59.5905 26.8924 59.936 28.287H57.1673C56.4002 26.7845 55.239 26.0332 53.6835 26.0332C52.6888 26.0553 51.7423 26.4662 51.0466 27.178C50.351 27.8897 49.9614 28.8457 49.9614 29.8412C49.9614 30.8368 50.351 31.7928 51.0466 32.5045C51.7423 33.2162 52.6888 33.6271 53.6835 33.6492C55.2377 33.6492 56.399 32.898 57.1673 31.3954H59.936C59.5902 32.7889 58.792 34.0281 57.6666 34.9189C56.7162 35.6657 55.575 36.1298 54.3735 36.2583C53.1719 36.3868 51.9585 36.1744 50.8718 35.6454C49.7852 35.1165 48.8692 34.2923 48.2286 33.2671C47.5879 32.2418 47.2485 31.0569 47.249 29.8478C47.2499 28.6393 47.5902 27.4553 48.2312 26.431C48.8721 25.4067 49.7878 24.5832 50.8739 24.0545C51.96 23.5258 53.1728 23.3132 54.3738 23.4409C55.5748 23.5686 56.7158 24.0314 57.6666 24.7767V24.7598Z" fill="#005F5D"/>
<path d="M10.3715 10.4404H7.65918V17.7729H10.3715V10.4404Z" fill="#005F5D"/>
<path d="M10.3715 0.427979H7.65918V7.7266H10.3715V0.427979Z" fill="#005F5D"/>
<path d="M7.65899 7.72656H0.233398V10.4405H7.65899V7.72656Z" fill="#005F5D"/>
</g>
<defs>
<clipPath id="clip0_325_10150">
<rect width="107.241" height="36.3429" fill="white" transform="translate(0 0.114258)"/>
</clipPath>
</defs>
</svg>
