<svg width="25" height="25" viewBox="0 0 25 25" fill="none" xmlns="http://www.w3.org/2000/svg">
<path d="M10.6192 2.35024C11.3968 1.21766 13.0687 1.21766 13.8463 2.35024C14.3717 3.11557 15.3625 3.40649 16.2183 3.04672C17.4847 2.51431 18.8912 3.41822 18.933 4.79138C18.9613 5.71929 19.6375 6.49969 20.5519 6.65971C21.9052 6.8965 22.5997 8.41734 21.8925 9.59511C21.4146 10.391 21.5616 11.4131 22.2443 12.0421C23.2547 12.9729 23.0168 14.6278 21.7851 15.2363C20.9527 15.6474 20.5238 16.5867 20.7581 17.485C21.1049 18.8143 20.01 20.0779 18.6448 19.9238C17.7224 19.8197 16.8537 20.378 16.5651 21.2604C16.1382 22.5662 14.534 23.0372 13.4688 22.1695C12.7491 21.5832 11.7164 21.5832 10.9967 22.1695C9.93155 23.0372 8.32735 22.5662 7.90037 21.2604C7.61185 20.378 6.74315 19.8197 5.82067 19.9238C4.45554 20.0779 3.36066 18.8143 3.70742 17.485C3.94174 16.5867 3.51277 15.6474 2.68045 15.2363C1.44874 14.6278 1.2108 12.9729 2.2212 12.0421C2.90396 11.4131 3.05092 10.391 2.57302 9.59511C1.8658 8.41734 2.56034 6.8965 3.91358 6.65971C4.82802 6.49969 5.50424 5.71929 5.53249 4.79138C5.57429 3.41822 6.9808 2.51431 8.24724 3.04672C9.10302 3.40649 10.0938 3.11557 10.6192 2.35024Z" fill="white"/>
<path d="M9.63721 12.8871V12.8871C10.7934 13.9865 12.6569 13.7994 13.5715 12.4921L15.5682 9.63791" stroke="#005F5D" stroke-width="1.11207" stroke-linecap="round"/>
</svg>
