<svg width="48" height="48" viewBox="0 0 48 48" fill="none" xmlns="http://www.w3.org/2000/svg">
<g clip-path="url(#clip0_108_1551)">
<path d="M10.5899 17.5899C10.2174 17.9646 10.0083 18.4715 10.0083 18.9999C10.0083 19.5283 10.2174 20.0352 10.5899 20.4099L16.5899 26.4099C16.9632 26.7855 17.4703 26.9977 17.9999 26.9999H30.5299L45.1099 34.7499C45.5834 34.9864 46.1314 35.0255 46.6338 34.8587C47.1362 34.6919 47.5519 34.3327 47.7899 33.8599C47.9208 33.5916 47.9924 33.2983 47.9999 32.9999C48.013 32.616 47.9153 32.2365 47.7185 31.9066C47.5216 31.5768 47.234 31.3106 46.8899 31.1399L31.8899 23.1399C31.6083 23.024 31.3034 22.9761 30.9999 22.9999H18.8299L13.4099 17.5899C13.0352 17.2174 12.5283 17.0083 11.9999 17.0083C11.4715 17.0083 10.9646 17.2174 10.5899 17.5899Z" fill="#39A59F"/>
<path d="M8 17C10.2091 17 12 15.2091 12 13C12 10.7909 10.2091 9 8 9C5.79086 9 4 10.7909 4 13C4 15.2091 5.79086 17 8 17Z" fill="#39A59F"/>
<path d="M46.9 38.2099L29.9 29.2099C29.6205 29.0706 29.3123 28.9987 29 28.9999H15.83L3.41 16.5899C3.13033 16.3119 2.77472 16.1228 2.38786 16.0463C2.00101 15.9698 1.60018 16.0094 1.23576 16.1601C0.87134 16.3108 0.559599 16.5658 0.339725 16.8932C0.11985 17.2205 0.00165629 17.6056 6.27931e-07 17.9999C-0.000208492 18.2638 0.0518166 18.5252 0.153077 18.7689C0.254338 19.0126 0.402832 19.2338 0.590001 19.4199L18.59 37.4199C18.965 37.7918 19.4719 38.0003 20 37.9999L30.15 33.8199L45.15 41.8199C45.4175 41.9391 45.7072 42.0004 46 41.9999C46.371 42.0006 46.735 41.8981 47.0511 41.7039C47.3672 41.5096 47.623 41.2313 47.79 40.8999C47.9429 40.5895 48.0151 40.2456 48 39.8999C47.9828 39.546 47.8718 39.2031 47.6786 38.9061C47.4853 38.6092 47.2166 38.3689 46.9 38.2099Z" fill="#035E5C"/>
<path d="M23 10.69C22.992 10.4587 22.9687 10.2282 22.93 10H28C28.2652 10 28.5196 10.1054 28.7071 10.2929C28.8946 10.4805 29 10.7348 29 11V21H31V11C31 10.2044 30.6839 9.44131 30.1213 8.87871C29.5587 8.3161 28.7956 8.00003 28 8.00003H22.15C21.7574 7.44013 21.2471 6.97286 20.6549 6.63096C20.0627 6.28906 19.4028 6.08081 18.7216 6.02079C18.0404 5.96077 17.3544 6.05043 16.7115 6.2835C16.0686 6.51657 15.4845 6.88741 15 7.37003L21.63 14C22.0654 13.566 22.4106 13.05 22.6458 12.4819C22.8809 11.9138 23.0013 11.3048 23 10.69Z" fill="#035E5C"/>
</g>
<defs>
<clipPath id="clip0_108_1551">
<rect width="48" height="48" fill="white"/>
</clipPath>
</defs>
</svg>
