<svg width="60" height="51" viewBox="0 0 60 51" fill="none" xmlns="http://www.w3.org/2000/svg">
<path d="M25.7735 30.1078V30.1521C25.7694 30.1903 25.7694 30.2288 25.7735 30.267V30.4792C25.7735 30.4792 25.7735 30.55 25.7735 30.5854C25.7778 30.6088 25.7778 30.6327 25.7735 30.6561C25.7774 30.7121 25.7774 30.7682 25.7735 30.8241C25.7735 30.8241 25.7735 30.8241 25.7735 30.886C25.7735 30.9479 25.7735 30.9568 25.7735 30.9922V31.1602V31.2132C25.7776 31.2692 25.7776 31.3253 25.7735 31.3813C25.7735 31.3813 25.7735 31.4343 25.7735 31.4609C25.7735 31.4874 25.7735 31.5051 25.7735 31.5404C25.7685 31.5727 25.7685 31.6055 25.7735 31.6377C25.7735 31.6377 25.7735 31.6908 25.7735 31.7173L25.6936 32.0534V32.1418V32.2391C25.6979 32.2891 25.6979 32.3394 25.6936 32.3894C25.6936 32.3894 25.6936 32.3894 25.6936 32.4513C25.6936 32.5132 25.6936 32.5309 25.6936 32.5751C25.6925 32.5957 25.6925 32.6164 25.6936 32.637C25.6963 32.6753 25.6963 32.7137 25.6936 32.752V32.8404L25.6404 33.0173V33.1057L25.5871 33.2737L25.5339 33.4152C25.5339 33.5125 25.4629 33.6009 25.4274 33.6982C25.4154 33.7462 25.4006 33.7934 25.383 33.8397L25.3031 34.0254V34.1138C25.3031 34.1846 25.241 34.2642 25.2055 34.3438V34.4057L25.1257 34.5737V34.6533V34.7594V34.8213L25.0724 34.9363V34.9893V35.0424L24.9926 35.1927V35.2635L24.8594 35.5199C24.8594 35.573 24.8062 35.626 24.7707 35.6703L24.6997 35.8117C24.6577 35.8972 24.6103 35.9799 24.5577 36.0594C24.5577 36.0594 24.5134 36.1301 24.4956 36.1743L24.327 36.4485L24.0164 36.9967L23.8567 37.2797L23.5639 37.8103L23.2799 38.3586L23.1379 38.6328C23.0758 38.7477 23.0226 38.8538 22.9693 38.9688L22.8628 39.1899L22.7563 39.4021C22.6942 39.5171 22.641 39.632 22.5877 39.747L22.4103 40.1184L22.2594 40.4368L22.0997 40.7994C22.0464 40.9232 22.0021 41.047 21.9488 41.1619L21.7358 41.666C21.7358 41.7456 21.6649 41.834 21.6382 41.9136L21.514 42.2054L21.3365 42.6564C21.2922 42.7891 21.2389 42.9129 21.1945 43.0455C20.9993 43.5585 20.8307 44.0448 20.671 44.5135L20.6177 44.6904C20.5901 44.7598 20.5664 44.8306 20.5467 44.9026C20.5467 44.9822 20.4935 45.0618 20.4758 45.1326C20.458 45.2033 20.387 45.3979 20.3515 45.5217L20.2717 45.787L20.1918 46.0611L20.1119 46.3352C20.1119 46.3352 20.0498 46.574 20.0232 46.6801C19.9966 46.7862 19.9611 46.9012 19.9344 47.0162V47.1135C19.9304 47.1605 19.9304 47.2079 19.9344 47.2549L19.8812 47.4583L19.828 47.6617C19.828 47.6617 19.828 47.6617 19.828 47.7148C19.828 47.7679 19.828 47.8386 19.7836 47.9005L19.7037 48.2542C19.6594 48.4665 19.615 48.661 19.5795 48.8379V48.9705V49.0943C19.5795 49.1828 19.5795 49.2535 19.5351 49.3331C19.5393 49.3624 19.5393 49.3922 19.5351 49.4215C19.539 49.442 19.539 49.463 19.5351 49.4834C19.538 49.504 19.538 49.5248 19.5351 49.5453C19.5388 49.5777 19.5388 49.6103 19.5351 49.6426C19.5401 49.6749 19.5401 49.7077 19.5351 49.7399V49.8107V49.8726V49.9433L19.4464 50.0936L19.3576 50.2263L19.3044 50.297L19.2512 50.3589L19.189 50.4297H19.1447C19.1301 50.4334 19.1149 50.4334 19.1003 50.4297H19.0471H18.9849L18.9051 50.4827C18.8309 50.5263 18.7538 50.5647 18.6744 50.5977L18.5146 50.6684H18.4348H18.3815H18.3194H18.2573H16.8108H16.6777H16.234H16.163H15.9944H15.9501H15.888C15.888 50.6684 15.888 50.6684 15.8436 50.6242L15.7903 50.5712L15.7282 50.5004L15.6839 50.4385L15.6129 50.3236C15.6145 50.3 15.6145 50.2764 15.6129 50.2528L15.2135 50.5535C15.2135 50.5535 15.1692 50.4739 15.1514 50.4297L15.0449 50.1732C14.6331 49.1673 14.3902 48.1007 14.3262 47.0162C14.1753 44.4693 13.7849 40.1538 12.8531 39.6674C12.7779 39.6266 12.6972 39.5968 12.6135 39.579C12.533 39.5982 12.4554 39.6279 12.3828 39.6674C11.451 40.1538 11.0606 44.4693 10.9008 47.0162C10.8371 48.1008 10.5942 49.1674 10.1821 50.1732C10.1821 50.2617 10.1022 50.3412 10.0667 50.4297C10.0556 50.4637 10.0407 50.4963 10.0223 50.527C10.0041 50.5794 9.98026 50.6298 9.95134 50.6773C9.95612 50.7006 9.95612 50.7247 9.95134 50.748V50.8011L9.88922 50.8542H9.83598H9.79161H9.74724H9.70287H9.59638H8.4694H8.30967C8.22735 50.8356 8.14709 50.809 8.07008 50.7746L7.95472 50.7304H7.90147H7.84823L7.71512 50.6508H7.66188H7.61751L7.5199 50.58L7.43116 50.5004C7.39939 50.4732 7.36973 50.4437 7.34242 50.412C7.30177 50.3759 7.26326 50.3375 7.22706 50.297L7.17382 50.2263C7.14029 50.1848 7.11059 50.1404 7.08508 50.0936C7.07356 50.0682 7.05863 50.0444 7.04071 50.0229V49.961C7.0391 49.9374 7.0391 49.9138 7.04071 49.8902L6.98746 49.7753L6.93422 49.6338C6.93025 49.5808 6.93025 49.5276 6.93422 49.4746C6.92917 49.4187 6.92917 49.3625 6.93422 49.3066C6.93422 49.2093 6.93422 49.112 6.8721 49.0059V48.8733C6.86783 48.8321 6.86783 48.7906 6.8721 48.7495C6.86714 48.7202 6.86714 48.6903 6.8721 48.661C6.86797 48.608 6.86797 48.5548 6.8721 48.5018L6.81886 48.2896C6.81886 48.1923 6.81886 48.0862 6.75674 47.9801C6.69463 47.874 6.69463 47.7325 6.65913 47.5998C6.65913 47.476 6.59701 47.3345 6.56152 47.2019C6.56152 47.0869 6.4994 46.9631 6.46391 46.8482L6.38404 46.5475C5.94481 44.9591 5.41447 43.3972 4.79562 41.8694C4.70688 41.6395 4.60926 41.4095 4.50278 41.1708C4.39629 40.932 4.36967 40.8524 4.29868 40.6932L3.67751 40.3837L3.36692 39.7205L3.21607 39.3579L3.08296 39.0926L2.98535 38.898L2.67476 38.2967L2.53278 38.0314C2.47953 37.943 2.43517 37.8457 2.38192 37.7484L2.08908 37.2267L1.75188 36.7049L1.59215 36.4308L1.45904 36.192L1.33481 35.9798L1.21944 35.7675L1.10408 35.5553C1.08158 35.4647 1.05191 35.376 1.01535 35.29C0.944354 35.1397 0.873363 34.9982 0.811246 34.8478C0.781024 34.7936 0.754347 34.7375 0.731381 34.6798C0.72655 34.6535 0.72655 34.6265 0.731381 34.6002V34.5118C0.727534 34.4943 0.727534 34.4762 0.731381 34.4587C0.726518 34.4265 0.726518 34.3937 0.731381 34.3614C0.731381 34.2995 0.678138 34.2465 0.66039 34.1934C0.634617 34.1212 0.604995 34.0503 0.571652 33.9812V33.9016C0.571652 33.8397 0.571652 33.769 0.500661 33.707V33.6186V33.5302L0.127958 33.2118C0.123992 33.1588 0.123992 33.1056 0.127958 33.0526C0.127958 33.0526 0.127958 32.9642 0.127958 32.92C0.109074 32.8682 0.0942399 32.8149 0.0835885 32.7608V32.7166C0.0835885 32.6635 0.0835885 32.6105 0.0835885 32.5574V32.4336V32.3629L0.00372349 32.018C0.00372349 32.018 0.00372349 32.018 0.00372349 31.9561C0.000262946 31.8913 0.000262946 31.8263 0.00372349 31.7615C-0.00124116 31.7323 -0.00124116 31.7024 0.00372349 31.6731V31.5493C0.00372349 31.5493 0.00372349 31.4874 0.00372349 31.4609C0.00372349 31.4343 0.00372349 31.3813 0.00372349 31.3459C0.00712937 31.3313 0.00712937 31.3162 0.00372349 31.3017V31.2221V31.0364C0.00876177 31.0131 0.00876177 30.9889 0.00372349 30.9656V30.9037C0.00372349 30.9037 0.00372349 30.8418 0.00372349 30.8153C0.00372349 30.7888 0.00372349 30.7092 0.00372349 30.665C7.18126e-05 30.6445 7.18126e-05 30.6235 0.00372349 30.6031C0.00372349 30.5588 0.00372349 30.5058 0.00372349 30.4616C0.00849137 30.4204 0.00849137 30.3789 0.00372349 30.3378V30.2582C-0.000688621 30.2111 -0.000688621 30.1637 0.00372349 30.1167C0.00372349 30.0725 0.00372349 30.0371 0.00372349 29.9929V29.6215C0.00372349 29.5065 0.00372349 29.4004 0.00372349 29.2854V29.082C-0.000558511 29.032 -0.000558511 28.9817 0.00372349 28.9317C-0.000224849 28.8728 -0.000224849 28.8137 0.00372349 28.7548C0.349805 24.9168 2.86999 22.2019 5.90485 21.6802C8.93972 21.1584 11.5398 22.4053 13.1104 22.9448C14.69 22.4053 17.4054 21.1761 20.3249 21.6802C20.9394 21.7835 21.5367 21.971 22.0997 22.2373C21.9402 22.5861 21.8182 22.9507 21.7358 23.325C21.6278 23.7948 21.5771 24.2758 21.585 24.7577C21.6148 25.8434 21.9468 26.8996 22.5437 27.8084C23.1407 28.7172 23.9793 29.4428 24.9659 29.9044C25.3792 30.0972 25.8141 30.2397 26.2615 30.3289L25.7735 30.1078Z" fill="#39A59F"/>
<path d="M54.2591 29.436V29.834V29.9666C54.2591 30.0285 54.2591 30.0904 54.2591 30.1435C54.2591 30.1877 54.2591 30.2231 54.2591 30.2584C54.2591 30.2938 54.2591 30.3999 54.2591 30.4707C54.2591 30.4707 54.2591 30.5414 54.2591 30.5768V30.6475V30.8156C54.2591 30.8156 54.2591 30.8156 54.2591 30.8775C54.2591 30.9394 54.2591 30.9482 54.2591 30.9836V31.1516V31.2047V31.3727C54.2591 31.3727 54.2591 31.4258 54.2591 31.4523C54.2623 31.4787 54.2623 31.5054 54.2591 31.5319C54.2625 31.5642 54.2625 31.5968 54.2591 31.6291C54.2591 31.6291 54.2591 31.6822 54.2591 31.7087L54.1792 32.0448C54.1792 32.0448 54.1792 32.1067 54.1792 32.1332V32.2305L54.1348 32.3808C54.1387 32.4013 54.1387 32.4223 54.1348 32.4427C54.1388 32.4839 54.1388 32.5254 54.1348 32.5665C54.1348 32.5665 54.1348 32.5665 54.1348 32.6284C54.1298 32.6666 54.1298 32.7052 54.1348 32.7434V32.8318L54.0816 33.0087V33.0971C54.0816 33.1502 54.0816 33.2033 54.0195 33.2652C54.0233 33.3122 54.0233 33.3596 54.0195 33.4066L53.913 33.6896L53.8597 33.8311L53.7799 34.0168C53.7834 34.0462 53.7834 34.0759 53.7799 34.1053L53.6823 34.3352V34.3971C53.6823 34.4502 53.6823 34.5032 53.6113 34.5651V34.6447C53.6148 34.68 53.6148 34.7155 53.6113 34.7508V34.8127L53.5492 34.9277V34.9808V35.0338C53.5292 35.0856 53.5054 35.1358 53.4782 35.1841V35.2549L53.3451 35.5113L53.2652 35.6617L53.1853 35.8032L53.0522 36.0508L52.9812 36.1657L52.8215 36.4399L52.502 36.9882C52.4465 37.0796 52.3961 37.1741 52.3512 37.2712C52.2536 37.448 52.1471 37.6249 52.0583 37.8018L51.7655 38.35C51.7655 38.4473 51.6679 38.5357 51.6235 38.6242L51.4549 38.9602L51.3484 39.1813L51.2419 39.3935L51.0733 39.7384L50.9047 40.1098L50.7628 40.4282L50.603 40.7908L50.4433 41.1534L50.2303 41.6574C50.2303 41.737 50.1682 41.8254 50.1327 41.905L50.0085 42.1969L49.8399 42.6479L49.689 43.037C49.5027 43.5499 49.3252 44.0363 49.1655 44.505L49.1122 44.6818C49.1122 44.7526 49.1122 44.8233 49.0412 44.8941C48.9702 44.9648 48.988 45.0532 48.9702 45.124C48.9525 45.1947 48.8904 45.3893 48.846 45.5131L48.7661 45.7784C48.7661 45.8668 48.704 45.9641 48.6863 46.0525C48.6685 46.141 48.633 46.2382 48.6064 46.3267C48.6064 46.4505 48.5354 46.5654 48.5088 46.6716C48.4822 46.7777 48.4467 46.8926 48.4201 47.0076V47.1049C48.4201 47.1049 48.4201 47.2022 48.4201 47.2464L48.3668 47.4498C48.3668 47.5205 48.3668 47.5913 48.3668 47.6532C48.3668 47.7151 48.3668 47.6532 48.3668 47.7062C48.3709 47.7681 48.3709 47.8301 48.3668 47.8919L48.2869 48.2457C48.2869 48.4579 48.1982 48.6525 48.1627 48.8293V48.962V49.0858L48.1183 49.3245C48.1225 49.3539 48.1225 49.3836 48.1183 49.413C48.1183 49.413 48.1183 49.413 48.1183 49.4749C48.1183 49.4749 48.1183 49.4749 48.1183 49.5368V49.6341C48.116 49.6664 48.116 49.699 48.1183 49.7313C48.1183 49.7313 48.1183 49.7313 48.1183 49.8021V49.864C48.12 49.8875 48.12 49.9112 48.1183 49.9347L48.0385 50.0851L47.9409 50.2177L47.8876 50.2885L47.8344 50.3504L47.7723 50.4211H47.7101L47.6392 50.4742L47.4084 50.5891L47.2398 50.6599H47.16H47.0978H45.3852H45.3231H45.261H45.1367H44.693H44.622H44.4446H44.4002H44.3469L44.2937 50.6157L44.2405 50.5626L44.1872 50.4919V50.43C44.1631 50.3935 44.1423 50.3551 44.1251 50.315C44.1203 50.2916 44.1203 50.2676 44.1251 50.2442C44.1009 50.2048 44.0801 50.1634 44.063 50.1204L43.6104 50.43C43.6104 50.3415 43.5305 50.2619 43.4951 50.1735C43.0829 49.1677 42.84 48.101 42.7763 47.0165C42.6165 44.4696 42.2261 40.1541 41.2943 39.6677C41.2217 39.6282 41.1441 39.5985 41.0636 39.5793C40.9822 39.5954 40.9042 39.6253 40.8329 39.6677C39.9011 40.1541 39.5018 44.4696 39.351 47.0165C39.2841 48.1015 39.0382 49.1681 38.6233 50.1735L38.5168 50.43C38.4984 50.4606 38.4835 50.4932 38.4724 50.5272L38.4014 50.6776V50.7483V50.8014L38.3393 50.8544H38.2861H38.2417H38.1974H38.0909H37.5141H37.3543C37.2688 50.8373 37.1854 50.8106 37.1059 50.7748L36.9994 50.7306H36.9461H36.8929L36.7509 50.651H36.6977L36.6089 50.5803L36.5202 50.5007L36.4314 50.4123L35.6239 50.7306V50.6599C35.5844 50.6212 35.5515 50.5764 35.5263 50.5272C35.5236 50.5037 35.5236 50.48 35.5263 50.4565L35.4819 50.3946C35.4803 50.371 35.4803 50.3474 35.4819 50.3238L35.4287 50.2089L35.3755 50.0674L35.3222 49.9082C35.3222 49.8551 35.3222 49.8021 35.3222 49.7402C35.3222 49.6429 35.3222 49.5456 35.2601 49.4395C35.2644 49.3954 35.2644 49.351 35.2601 49.3069V49.1831C35.2601 49.1831 35.2601 49.13 35.2601 49.0946C35.2601 49.0592 35.2601 48.9885 35.2601 48.9354C35.2601 48.8824 35.2601 48.7939 35.2601 48.7232C35.2601 48.6525 35.2157 48.5198 35.1891 48.4137C35.1625 48.3076 35.127 48.1661 35.1004 48.0334L34.9939 47.6355C34.9939 47.5205 34.9318 47.3967 34.9051 47.2817L34.8253 46.9811C34.3034 45.3583 33.681 43.7694 32.9618 42.2234L32.6689 41.5248L32.456 41.0472C32.3672 40.835 32.2696 40.6228 32.1631 40.4017C32.0655 40.1806 31.959 39.9595 31.8525 39.7384C31.746 39.5174 31.746 39.5085 31.6839 39.3935L31.5508 39.1283C31.5236 39.0609 31.491 38.9958 31.4532 38.9337C31.3556 38.7303 31.2491 38.5357 31.1426 38.3324C31.0361 38.129 31.0539 38.1555 31.0006 38.0671L30.8498 37.7841C30.7522 37.616 30.6634 37.4392 30.5569 37.2623L30.1842 36.7052C30.131 36.6168 30.0778 36.5195 30.0156 36.431L29.8825 36.1923L29.7672 35.98C29.7672 35.9093 29.6873 35.8385 29.6518 35.7678C29.6163 35.6971 29.5719 35.6263 29.5364 35.5556L29.4122 35.2903C29.3323 35.1399 29.2614 34.9984 29.1992 34.8481L29.1194 34.6801V34.6005C29.1194 34.6005 29.1194 34.5386 29.1194 34.5121C29.1194 34.4855 29.1194 34.5121 29.1194 34.459C29.1178 34.4266 29.1178 34.3941 29.1194 34.3617C29.1194 34.2998 29.1194 34.2468 29.0484 34.1937L28.9685 33.9815V33.9019C28.9487 33.8357 28.925 33.7707 28.8975 33.7073C28.9011 33.6779 28.9011 33.6483 28.8975 33.6189V33.5305C28.8778 33.4613 28.8541 33.3934 28.8265 33.3271L28.5248 33.0087C28.5248 33.0087 28.5248 32.9203 28.5248 32.876C28.5248 32.823 28.5248 32.7699 28.5248 32.7169C28.5206 32.7024 28.5206 32.6871 28.5248 32.6727C28.5059 32.6208 28.4911 32.5676 28.4805 32.5135C28.4765 32.4723 28.4765 32.4308 28.4805 32.3897V32.3189C28.4805 32.204 28.4183 32.089 28.3917 31.974C28.3651 31.8591 28.3917 31.974 28.3917 31.9121C28.3917 31.8414 28.3917 31.7795 28.3917 31.7176C28.3917 31.6557 28.3917 31.6645 28.3917 31.6291C28.3868 31.588 28.3868 31.5465 28.3917 31.5053C28.3917 31.5053 28.3917 31.4434 28.3917 31.4169V31.3019V31.2577V31.1781C28.3874 31.1163 28.3874 31.0543 28.3917 30.9924C28.3879 30.969 28.3879 30.9451 28.3917 30.9217V30.7714C28.3879 30.7213 28.3879 30.6711 28.3917 30.621C28.3966 30.6007 28.3966 30.5795 28.3917 30.5591C28.3873 30.512 28.3873 30.4647 28.3917 30.4176C28.3873 30.3853 28.3873 30.3526 28.3917 30.3203C28.7861 30.2495 29.1726 30.1399 29.5453 29.9931C30.8671 29.4593 31.948 28.4631 32.5852 27.1915C33.2224 25.9199 33.372 24.4603 33.0061 23.0865C32.9163 22.7825 32.8005 22.4866 32.66 22.2022C33.0277 21.9117 33.4265 21.6625 33.8491 21.4594C36.7687 20.9907 39.4929 22.1845 41.0636 22.724C42.6343 22.1845 45.3497 20.9553 48.2692 21.4594C51.1887 21.9634 53.8242 24.6695 54.1792 28.534C54.1792 28.5959 54.1792 28.6578 54.1792 28.7109C54.1835 28.7609 54.1835 28.8112 54.1792 28.8612V29.0646C54.1792 29.1972 54.1792 29.3211 54.1792 29.4537L54.2591 29.436Z" fill="#39A59F"/>
<path d="M33.6007 15.9324C33.6007 16.0209 33.6007 16.1181 33.6007 16.2066C33.5254 16.9056 33.2123 17.5578 32.7133 18.0548C32.4331 18.3357 32.0999 18.5585 31.7328 18.7102C31.3657 18.862 30.9721 18.9398 30.5747 18.9391H28.7999V21.8044C29.2663 22.1424 29.6334 22.5986 29.8631 23.1257C30.0928 23.6529 30.1766 24.2317 30.106 24.802C30.0354 25.3724 29.8128 25.9135 29.4614 26.3692C29.11 26.8249 28.6426 27.1785 28.1078 27.3933C27.7368 27.5374 27.3433 27.6152 26.9453 27.6232C26.4671 27.6278 25.9939 27.5251 25.561 27.3226C25.0126 27.0694 24.546 26.6687 24.2136 26.1657C23.8813 25.6626 23.6964 25.0771 23.6797 24.475C23.679 24.2077 23.7058 23.941 23.7596 23.6791C23.9381 22.9251 24.382 22.2599 25.0108 21.8044V18.948H23.236C22.4411 18.9481 21.6781 18.6364 21.1118 18.0804C20.5456 17.5244 20.2217 16.7687 20.21 15.9767C20.2065 15.1359 20.3692 14.3026 20.6889 13.5245C21.0085 12.7464 21.4788 12.0386 22.0729 11.4416C22.667 10.8446 23.3733 10.3701 24.1515 10.0451C24.9296 9.72012 25.7644 9.55107 26.6081 9.54759H27.1671C28.6384 9.54447 30.0663 10.044 31.2128 10.9628C32.3592 11.8817 33.1551 13.1644 33.4676 14.5971C33.4676 14.5971 33.4676 14.6502 33.4676 14.6678C33.4676 14.6678 33.4676 14.7121 33.4676 14.7298C33.4676 14.7298 33.4676 14.7828 33.4676 14.8005C33.4626 14.8357 33.4626 14.8714 33.4676 14.9066C33.4676 14.9066 33.4676 14.9685 33.4676 15.0039V15.1896C33.4676 15.2338 33.4676 15.278 33.4676 15.3222V15.6052C33.472 15.6582 33.472 15.7114 33.4676 15.7644V15.8971L33.6007 15.9324Z" fill="#005F5D"/>
<path d="M59.8316 3.91407C59.8328 4.54613 59.6829 5.16937 59.3944 5.73222C59.1058 6.29506 58.6868 6.78131 58.1722 7.15071L46.5652 15.4811C45.4365 16.2981 44.152 16.8764 42.7908 17.1806C41.4296 17.4847 40.0204 17.5083 38.6497 17.2497L36.6797 16.8695C36.4828 16.8319 36.3046 16.729 36.1739 16.5776V16.5334C36.1829 16.3537 36.1829 16.1737 36.1739 15.994V15.8171C36.1783 15.7376 36.1783 15.6579 36.1739 15.5784C36.1786 15.5284 36.1786 15.478 36.1739 15.428V15.3484C36.1739 15.3484 36.1739 15.2954 36.1739 15.2688V15.2069C36.1739 15.1244 36.1739 15.0537 36.1739 14.9947V14.7471V14.5791V14.4553C36.1739 14.4553 36.1739 14.4022 36.1739 14.358V14.2607C36.1801 14.2137 36.1801 14.1662 36.1739 14.1192C36.0562 13.5642 35.8838 13.0221 35.6592 12.5009C35.7271 12.3411 35.8407 12.2047 35.9859 12.1087C36.1311 12.0128 36.3014 11.9616 36.4756 11.9615H37.434C39.2006 11.9605 40.917 11.3758 42.3146 10.2989L49.7598 4.58616L53.1851 1.16381C53.7435 0.607981 54.4548 0.229535 55.2289 0.0762751C56.0031 -0.0769845 56.8054 0.00181639 57.5347 0.302725C58.2639 0.603634 58.8873 1.11315 59.3261 1.76693C59.7649 2.42071 59.9995 3.18942 60.0002 3.97598L59.8316 3.91407Z" fill="#005F5D"/>
</svg>
