<svg width="33" height="33" viewBox="0 0 33 33" fill="none" xmlns="http://www.w3.org/2000/svg">
<path d="M15.6756 1.20084C16.0729 0.622152 16.9271 0.622153 17.3244 1.20084L19.4324 4.27136C19.7009 4.6624 20.2071 4.81104 20.6444 4.62722L24.0778 3.18381C24.7249 2.91178 25.4435 3.37363 25.4649 4.07524L25.5782 7.798C25.5927 8.27211 25.9382 8.67085 26.4054 8.75261L30.0741 9.39458C30.7656 9.51557 31.1204 10.2926 30.7591 10.8944L28.8417 14.0875C28.5976 14.4941 28.6726 15.0164 29.0215 15.3377L31.7608 17.8613C32.277 18.3369 32.1554 19.1824 31.5261 19.4933L28.1868 21.1429C27.7616 21.353 27.5424 21.8329 27.6621 22.2919L28.6022 25.8958C28.7794 26.575 28.22 27.2206 27.5225 27.1419L23.8215 26.7242C23.3501 26.6711 22.9063 26.9563 22.7589 27.4071L21.6013 30.9472C21.3831 31.6143 20.5635 31.855 20.0193 31.4117L17.1316 29.0595C16.7638 28.7599 16.2362 28.7599 15.8684 29.0595L12.9807 31.4117C12.4365 31.855 11.6169 31.6143 11.3987 30.9472L10.2411 27.4071C10.0937 26.9563 9.64988 26.6711 9.17854 26.7242L5.47754 27.1419C4.78003 27.2206 4.22061 26.575 4.39779 25.8958L5.33788 22.2919C5.4576 21.8329 5.23842 21.353 4.81316 21.1429L1.47389 19.4933C0.844552 19.1824 0.72298 18.3369 1.23923 17.8613L3.9785 15.3377C4.32735 15.0164 4.40244 14.4941 4.15826 14.0875L2.24092 10.8944C1.87957 10.2926 2.23444 9.51557 2.92586 9.39458L6.59461 8.75261C7.06184 8.67085 7.40735 8.27211 7.42178 7.798L7.53511 4.07524C7.55646 3.37363 8.27511 2.91178 8.92219 3.18381L12.3556 4.62722C12.7929 4.81104 13.2991 4.6624 13.5676 4.27136L15.6756 1.20084Z" fill="white"/>
<path d="M13 17.3826L15.963 20.2L21 13" stroke="#005F5D" stroke-width="1.5" stroke-linecap="round"/>
</svg>
