<svg width="48" height="48" viewBox="0 0 48 48" fill="none" xmlns="http://www.w3.org/2000/svg">
<path d="M43.5 12.5001C43.5024 10.4869 42.9259 8.51552 41.8394 6.82074C40.7528 5.12596 39.202 3.77926 37.3716 2.9411C35.5412 2.10294 33.5084 1.80864 31.5154 2.09328C29.5225 2.37791 27.6534 3.22948 26.1308 4.54652C24.6082 5.86356 23.4963 7.59054 22.9276 9.52173C22.359 11.4529 22.3574 13.5069 22.9232 15.4389C23.4891 17.3709 24.5984 19.0996 26.119 20.4189C27.6396 21.7382 29.5075 22.5925 31.5 22.8801V29.0001L29.5 35.0001V46.0001H36.5V35.0001L34.5 29.0001V22.8801C36.9978 22.5217 39.2826 21.2749 40.9357 19.3684C42.5887 17.4619 43.4991 15.0234 43.5 12.5001ZM33 21.0001C31.3189 21.0001 29.6755 20.5016 28.2776 19.5676C26.8798 18.6336 25.7904 17.3061 25.147 15.7529C24.5037 14.1997 24.3353 12.4907 24.6633 10.8418C24.9913 9.193 25.8008 7.67844 26.9896 6.4897C28.1783 5.30095 29.6929 4.4914 31.3417 4.16343C32.9906 3.83545 34.6996 4.00378 36.2528 4.64713C37.806 5.29047 39.1335 6.37994 40.0675 7.77776C41.0015 9.17557 41.5 10.819 41.5 12.5001C41.4973 14.7536 40.601 16.9141 39.0075 18.5076C37.414 20.1011 35.2535 20.9975 33 21.0001Z" fill="#035E5C"/>
<path d="M17.5001 3.74993C17.5964 3.67468 17.6603 3.56553 17.6789 3.44475C17.6975 3.32397 17.6693 3.20065 17.6001 3.09993C17.3901 2.78993 17.0001 2.99993 17.0001 2.99993L5.74012 9.82993L5.55012 9.99993C5.21944 10.2842 4.95761 10.6397 4.78439 11.0399C4.61116 11.4401 4.53106 11.8743 4.55012 12.3099C4.53982 13.2694 4.8977 14.1963 5.55012 14.8999L11.5501 21.0199V29.0199L9.55012 35.0199V45.9999H16.5501V34.9999L14.5501 28.9999V20.9999L7.00012 13.4599C6.84261 13.3422 6.71339 13.1908 6.62189 13.0168C6.53039 12.8428 6.47892 12.6505 6.47126 12.454C6.46359 12.2575 6.49991 12.0618 6.57757 11.8812C6.65523 11.7006 6.77226 11.5395 6.92012 11.4099L17.5001 3.74993Z" fill="#39A59F"/>
</svg>
