<svg width="48" height="48" viewBox="0 0 48 48" fill="none" xmlns="http://www.w3.org/2000/svg">
<path d="M40 9C40 1.62 34 0 32 0C30 0 27.43 1.25 24 1.25C20.57 1.25 18.05 0 16 0C13.95 0 8 1.62 8 9C8 16 11 19.88 11 22C11 23.23 10.9 33.94 12.38 40.28C13.44 44.85 14.86 48 16.57 48C18.28 48 18.2 42.07 19 37.77C19.8 33.47 21.71 28 24 28C26.29 28 28.23 33.48 29 37.77C29.77 42.06 29.71 48 31.43 48C33.15 48 34.56 44.85 35.63 40.28C37.1 33.94 37 23.23 37 22C37 19.88 40 16 40 9ZM35 22V22.23C35 29.82 34.55 36.07 33.68 39.83C33.3332 41.6155 32.769 43.3517 32 45C31.83 44 31.69 42.69 31.58 41.69C31.42 40.27 31.26 38.8 31.01 37.44C30.49 34.74 28.54 26 24 26C19.46 26 17.51 34.74 17 37.41C16.75 38.77 16.59 40.24 16.43 41.66C16.32 42.66 16.18 43.96 16.01 44.97C15.233 43.3326 14.6587 41.6065 14.3 39.83C13.43 36.07 12.96 29.83 12.98 22.23V22C12.8733 20.7131 12.5345 19.4562 11.98 18.29C10.711 15.3551 10.038 12.1973 10 9C10 2.19 15.94 2 16 2C16.8534 2.06165 17.698 2.21248 18.52 2.45C20.3063 2.94364 22.1472 3.21238 24 3.25C25.8528 3.21238 27.6937 2.94364 29.48 2.45C30.302 2.21248 31.1466 2.06165 32 2C32.06 2 38 2.19 38 9C37.9557 12.1986 37.2759 15.3565 36 18.29C35.4455 19.4562 35.1067 20.7131 35 22Z" fill="#035E5C"/>
</svg>
