<svg width="48" height="48" viewBox="0 0 48 48" fill="none" xmlns="http://www.w3.org/2000/svg">
<path d="M45.2698 33.0001C45.2646 33.4467 45.0849 33.8735 44.7691 34.1893C44.4532 34.5051 44.0264 34.6849 43.5798 34.6901H4.41979C3.97318 34.6849 3.54633 34.5051 3.23052 34.1893C2.9147 33.8735 2.73498 33.4467 2.72979 33.0001V6.20006C2.73498 5.75346 2.9147 5.32661 3.23052 5.01079C3.54633 4.69497 3.97318 4.51525 4.41979 4.51006H43.5798C44.0264 4.51525 44.4532 4.69497 44.7691 5.01079C45.0849 5.32661 45.2646 5.75346 45.2698 6.20006V33.0001ZM43.5798 2.06006H4.41979C3.3226 2.0627 2.27111 2.49972 1.49528 3.27555C0.719451 4.05138 0.282426 5.10287 0.279785 6.20006V33.0001C0.292918 34.0903 0.734571 35.1316 1.50927 35.8988C2.28397 36.666 3.32948 37.0975 4.41979 37.1001H43.5798C44.6701 37.0975 45.7156 36.666 46.4903 35.8988C47.265 35.1316 47.7067 34.0903 47.7198 33.0001V6.20006C47.7171 5.10287 47.2801 4.05138 46.5043 3.27555C45.7285 2.49972 44.677 2.0627 43.5798 2.06006Z" fill="#39A59F"/>
<path d="M37.9997 24.55C37.0768 26.0938 36.4272 27.7853 36.0797 29.55C36.0523 29.7145 35.9755 29.8668 35.8593 29.9865C35.7432 30.1062 35.5933 30.1877 35.4297 30.22C35.3171 30.2453 35.1993 30.2301 35.0968 30.1771C34.9944 30.124 34.914 30.0365 34.8697 29.93C34.6602 29.5022 34.5411 29.0358 34.5197 28.56C34.4597 27.56 34.3097 25.99 33.9597 25.81H33.8797H33.7897C33.4397 25.99 33.2997 27.6 33.2397 28.56C33.21 29.0358 33.0878 29.5011 32.8797 29.93C32.837 30.0373 32.7564 30.1252 32.6531 30.1768C32.5498 30.2285 32.4311 30.2403 32.3197 30.21C32.1582 30.1803 32.0096 30.1022 31.8936 29.9861C31.7775 29.8701 31.6994 29.7214 31.6697 29.56C31.3284 27.795 30.682 26.103 29.7597 24.56C28.0597 21.7 29.3797 19.27 31.1897 18.98C32.1118 18.9041 33.038 19.0659 33.8797 19.45C34.7136 19.0761 35.6292 18.9212 36.5397 19C38.3597 19.29 39.6697 21.72 37.9797 24.58L37.9997 24.55ZM25.3897 20.29C25.3391 20.4297 25.2487 20.5515 25.1296 20.6404C25.0105 20.7293 24.868 20.7813 24.7197 20.79C24.5808 20.7914 24.4443 20.7537 24.3258 20.6812C24.2073 20.6087 24.1116 20.5043 24.0497 20.38L19.7097 12.17L17.3697 16C17.3008 16.1133 17.2039 16.2068 17.0883 16.2717C16.9726 16.3365 16.8422 16.3704 16.7097 16.37H9.34969C9.24188 16.3823 9.13268 16.3718 9.02925 16.339C8.92582 16.3061 8.83049 16.2518 8.74952 16.1796C8.66854 16.1074 8.60375 16.0188 8.55938 15.9198C8.51502 15.8208 8.49208 15.7135 8.49208 15.605C8.49208 15.4965 8.51502 15.3892 8.55938 15.2902C8.60375 15.1912 8.66854 15.1026 8.74952 15.0304C8.83049 14.9582 8.92582 14.9039 9.02925 14.871C9.13268 14.8382 9.24188 14.8277 9.34969 14.84H16.2797L18.9997 10.22C19.0682 10.1012 19.1676 10.0032 19.2873 9.93625C19.407 9.86935 19.5426 9.83609 19.6797 9.84C19.8142 9.84641 19.9448 9.88754 20.0587 9.95939C20.1726 10.0312 20.266 10.1314 20.3297 10.25L24.5097 18.15L25.5097 15.42C25.5628 15.2741 25.6593 15.148 25.7862 15.0586C25.9132 14.9692 26.0644 14.9208 26.2197 14.92L33.0397 14.87C33.2275 14.8915 33.4008 14.9814 33.5267 15.1224C33.6525 15.2635 33.7221 15.446 33.7221 15.635C33.7221 15.824 33.6525 16.0065 33.5267 16.1476C33.4008 16.2886 33.2275 16.3785 33.0397 16.4L26.7497 16.45L25.3297 20.29H25.3897ZM41.1297 7H6.86969C6.42832 6.99988 6.00441 7.17243 5.6886 7.48076C5.37279 7.7891 5.19013 8.20875 5.17969 8.65V30.51C5.18233 30.9565 5.36155 31.3838 5.6782 31.6986C5.99485 32.0133 6.4232 32.19 6.86969 32.19H41.1297C41.5762 32.19 42.0045 32.0133 42.3212 31.6986C42.6378 31.3838 42.817 30.9565 42.8197 30.51V8.65C42.8092 8.20875 42.6266 7.7891 42.3108 7.48076C41.995 7.17243 41.5711 6.99988 41.1297 7Z" fill="#035E5C"/>
<path d="M29.3096 39.07H28.3096V36.29C28.3096 36.0248 28.2042 35.7705 28.0167 35.5829C27.8291 35.3954 27.5748 35.29 27.3096 35.29H17.8795C17.6143 35.29 17.36 35.3954 17.1724 35.5829C16.9849 35.7705 16.8795 36.0248 16.8795 36.29V39.07H15.8796C14.5304 39.0727 13.2373 39.6098 12.2833 40.5638C11.3293 41.5178 10.7922 42.8109 10.7896 44.16C10.7896 44.6321 10.9771 45.0849 11.3109 45.4187C11.6447 45.7525 12.0975 45.94 12.5696 45.94H32.5695C33.0416 45.94 33.4944 45.7525 33.8282 45.4187C34.162 45.0849 34.3495 44.6321 34.3495 44.16C34.3469 42.8109 33.8098 41.5178 32.8558 40.5638C31.9018 39.6098 30.6087 39.0727 29.2596 39.07H29.3096Z" fill="#39A59F"/>
</svg>
