<svg width="48" height="48" viewBox="0 0 48 48" fill="none" xmlns="http://www.w3.org/2000/svg">
<path d="M29.31 39.07H28.31V36.29C28.31 36.0248 28.2047 35.7705 28.0171 35.5829C27.8296 35.3954 27.5753 35.29 27.31 35.29H17.88C17.6148 35.29 17.3605 35.3954 17.1729 35.5829C16.9854 35.7705 16.88 36.0248 16.88 36.29V39.07H15.88C14.5309 39.0727 13.2378 39.6098 12.2838 40.5638C11.3298 41.5178 10.7927 42.8109 10.79 44.16C10.79 44.6321 10.9776 45.0849 11.3114 45.4187C11.6452 45.7525 12.098 45.94 12.57 45.94H32.57C33.0421 45.94 33.4949 45.7525 33.8287 45.4187C34.1625 45.0849 34.35 44.6321 34.35 44.16C34.3474 42.8109 33.8103 41.5178 32.8563 40.5638C31.9023 39.6098 30.6092 39.0727 29.26 39.07H29.31Z" fill="#39A59F"/>
<path d="M42.0899 1.81006H5.91988C3.82672 1.81006 2.12988 3.5069 2.12988 5.60006V32.0201C2.12988 34.1132 3.82672 35.8101 5.91988 35.8101H42.0899C44.183 35.8101 45.8799 34.1132 45.8799 32.0201V5.60006C45.8799 3.5069 44.183 1.81006 42.0899 1.81006Z" stroke="#39A59F" stroke-width="1.89" stroke-miterlimit="10"/>
<path d="M32.7101 10.7601C32.7577 10.1495 32.6815 9.53559 32.4861 8.95514C32.2907 8.37469 31.9802 7.83966 31.573 7.38211C31.1659 6.92457 30.6706 6.55393 30.1168 6.2924C29.563 6.03086 28.9621 5.88383 28.3501 5.86011C27.2401 5.86011 25.8701 6.54011 24.0001 6.54011C22.1301 6.54011 20.7601 5.86011 19.6501 5.86011C19.0381 5.88383 18.4372 6.03086 17.8834 6.2924C17.3296 6.55393 16.8343 6.92457 16.4272 7.38211C16.0201 7.83966 15.7095 8.37469 15.5141 8.95514C15.3187 9.53559 15.2425 10.1495 15.2901 10.7601C15.2901 14.5701 16.9201 16.6801 16.9201 17.8301C16.859 21.1795 17.1101 24.5273 17.6701 27.8301C18.2501 30.2701 19.0001 32.0001 20.0001 32.0001C21.0001 32.0001 20.8801 28.7801 21.3101 26.4401C21.7401 24.1001 22.7601 21.1001 24.0001 21.1001C25.2401 21.1001 26.3001 24.1001 26.7301 26.4201C27.1601 28.7401 27.1101 32.0001 28.0001 32.0001C28.8901 32.0001 29.7101 30.2901 30.2901 27.8001C30.8502 24.4973 31.1012 21.1495 31.0401 17.8001C31.0801 16.6801 32.7101 14.5701 32.7101 10.7601ZM30.0001 17.8301V18.0001C30.0853 21.2096 29.8441 24.4194 29.2801 27.5801C29.0827 28.5471 28.7704 29.4871 28.3501 30.3801C28.2501 29.8301 28.1801 29.1201 28.1201 28.5801C28.0301 27.8001 27.9501 27.0001 27.8101 26.2601C27.5301 24.7701 26.4701 20.0001 24.0001 20.0001C21.5301 20.0001 20.4701 24.7601 20.2001 26.2101C20.0601 26.9501 19.9801 27.7501 19.8901 28.5301C19.8301 29.0701 19.7601 29.7801 19.6601 30.3301C19.2398 29.4371 18.9276 28.4971 18.7301 27.5301C18.1662 24.3862 17.9216 21.1933 18.0001 18.0001V17.8701C17.9399 17.1767 17.7571 16.4996 17.4601 15.8701C16.7654 14.2722 16.3949 12.5523 16.3701 10.8101C16.322 10.342 16.3699 9.86899 16.5108 9.42002C16.6518 8.97105 16.8828 8.55554 17.1898 8.19892C17.4968 7.84229 17.8734 7.55204 18.2964 7.34592C18.7194 7.13979 19.1801 7.02212 19.6501 7.00011C20.1053 7.01819 20.5576 7.08184 21.0001 7.19011C21.9773 7.46409 22.9854 7.61196 24.0001 7.63011C25.0148 7.61196 26.023 7.46409 27.0001 7.19011C27.4426 7.08184 27.8949 7.01819 28.3501 7.00011C28.8193 7.02344 29.2788 7.14207 29.7007 7.34877C30.1226 7.55547 30.4979 7.84592 30.8039 8.2024C31.1098 8.55888 31.34 8.97394 31.4803 9.42226C31.6206 9.87059 31.6682 10.3428 31.6201 10.8101C31.5953 12.5523 31.2248 14.2722 30.5301 15.8701C30.2411 16.4878 30.0618 17.151 30.0001 17.8301Z" fill="#035E5C" stroke="#035E5C" stroke-width="0.75" stroke-miterlimit="10"/>
</svg>
