<svg width="48" height="48" viewBox="0 0 48 48" fill="none" xmlns="http://www.w3.org/2000/svg">
<path d="M0 4V44H48V4H0ZM4 8H2V6H4V8ZM14 8H6V6H14V8ZM29.81 32.14C29.28 34.42 28.57 36 27.71 36C26.85 36 26.9 33 26.51 30.89C26.12 28.78 25.14 26 24 26C22.86 26 21.88 28.74 21.49 30.89C21.1 33.04 21.14 36 20.29 36C19.44 36 18.72 34.42 18.19 32.14C17.45 28.97 17.75 23.62 17.75 23C17.75 21.94 16 20 16 16.5C15.9565 15.9396 16.0265 15.3762 16.2058 14.8435C16.385 14.3108 16.6699 13.8197 17.0433 13.3996C17.4167 12.9795 17.871 12.639 18.3791 12.3986C18.8871 12.1581 19.4384 12.0225 20 12C21 12 22.29 12.75 24 12.75C25.71 12.75 27 12 28 12C28.5616 12.0225 29.1129 12.1581 29.6209 12.3986C30.129 12.639 30.5833 12.9795 30.9567 13.3996C31.3301 13.8197 31.615 14.3108 31.7942 14.8435C31.9735 15.3762 32.0435 15.9396 32 16.5C32 20 30.25 21.94 30.25 23C30.25 23.62 30.55 29 29.81 32.14Z" fill="#39A59F"/>
</svg>
