<svg width="36" height="35" viewBox="0 0 36 35" fill="none" xmlns="http://www.w3.org/2000/svg">
<mask id="mask0_361_6213" style="mask-type:alpha" maskUnits="userSpaceOnUse" x="0" y="0" width="36" height="35">
<circle cx="17.8125" cy="17.5623" r="17.4375" fill="#39A59F"/>
</mask>
<g mask="url(#mask0_361_6213)">
<rect x="-0.75" y="0.124756" width="50.4" height="36" rx="3.61607" fill="white"/>
<mask id="mask1_361_6213" style="mask-type:luminance" maskUnits="userSpaceOnUse" x="-1" y="0" width="51" height="37">
<rect x="-0.75" y="0.124756" width="50.4" height="36" rx="3.61607" fill="white"/>
</mask>
<g mask="url(#mask1_361_6213)">
<path fill-rule="evenodd" clip-rule="evenodd" d="M49.65 0.124756H-0.75V2.52476H49.65V0.124756ZM49.65 4.92488H-0.75V7.32488H49.65V4.92488ZM-0.75 9.7243H49.65V12.1243H-0.75V9.7243ZM49.65 14.5248H-0.75V16.9248H49.65V14.5248ZM-0.75 19.3249H49.65V21.7249H-0.75V19.3249ZM49.65 24.1247H-0.75V26.5247H49.65V24.1247ZM-0.75 28.9248H49.65V31.3248H-0.75V28.9248ZM49.65 33.7249H-0.75V36.1249H49.65V33.7249Z" fill="#D02F44"/>
<rect x="-0.75" y="0.124756" width="21.6" height="16.8" fill="#46467F"/>
<g filter="url(#filter0_d_361_6213)">
<path fill-rule="evenodd" clip-rule="evenodd" d="M8.84966 3.72466C8.84966 4.3874 8.3124 4.92466 7.64966 4.92466C6.98692 4.92466 6.44966 4.3874 6.44966 3.72466C6.44966 3.06192 6.98692 2.52466 7.64966 2.52466C8.3124 2.52466 8.84966 3.06192 8.84966 3.72466ZM4.05039 3.72467C4.05039 4.38742 3.51313 4.92467 2.85039 4.92467C2.18765 4.92467 1.65039 4.38742 1.65039 3.72467C1.65039 3.06193 2.18765 2.52467 2.85039 2.52467C3.51313 2.52467 4.05039 3.06193 4.05039 3.72467ZM12.4508 4.92466C13.1136 4.92466 13.6508 4.3874 13.6508 3.72466C13.6508 3.06192 13.1136 2.52466 12.4508 2.52466C11.7881 2.52466 11.2508 3.06192 11.2508 3.72466C11.2508 4.3874 11.7881 4.92466 12.4508 4.92466ZM18.4506 3.72466C18.4506 4.3874 17.9134 4.92466 17.2506 4.92466C16.5879 4.92466 16.0506 4.3874 16.0506 3.72466C16.0506 3.06192 16.5879 2.52466 17.2506 2.52466C17.9134 2.52466 18.4506 3.06192 18.4506 3.72466ZM5.25048 7.3249C5.91322 7.3249 6.45048 6.78764 6.45048 6.1249C6.45048 5.46216 5.91322 4.9249 5.25048 4.9249C4.58774 4.9249 4.05048 5.46216 4.05048 6.1249C4.05048 6.78764 4.58774 7.3249 5.25048 7.3249ZM11.251 6.1249C11.251 6.78764 10.7137 7.3249 10.051 7.3249C9.38822 7.3249 8.85096 6.78764 8.85096 6.1249C8.85096 5.46216 9.38822 4.9249 10.051 4.9249C10.7137 4.9249 11.251 5.46216 11.251 6.1249ZM14.85 7.3249C15.5128 7.3249 16.05 6.78764 16.05 6.1249C16.05 5.46216 15.5128 4.9249 14.85 4.9249C14.1873 4.9249 13.65 5.46216 13.65 6.1249C13.65 6.78764 14.1873 7.3249 14.85 7.3249ZM18.4506 8.52478C18.4506 9.18753 17.9134 9.72478 17.2506 9.72478C16.5879 9.72478 16.0506 9.18753 16.0506 8.52478C16.0506 7.86204 16.5879 7.32478 17.2506 7.32478C17.9134 7.32478 18.4506 7.86204 18.4506 8.52478ZM12.4508 9.72478C13.1136 9.72478 13.6508 9.18753 13.6508 8.52478C13.6508 7.86204 13.1136 7.32478 12.4508 7.32478C11.7881 7.32478 11.2508 7.86204 11.2508 8.52478C11.2508 9.18753 11.7881 9.72478 12.4508 9.72478ZM8.84966 8.52478C8.84966 9.18753 8.3124 9.72478 7.64966 9.72478C6.98692 9.72478 6.44966 9.18753 6.44966 8.52478C6.44966 7.86204 6.98692 7.32478 7.64966 7.32478C8.3124 7.32478 8.84966 7.86204 8.84966 8.52478ZM2.85059 9.72478C3.51333 9.72478 4.05059 9.18753 4.05059 8.52478C4.05059 7.86204 3.51333 7.32478 2.85059 7.32478C2.18785 7.32478 1.65059 7.86204 1.65059 8.52478C1.65059 9.18753 2.18785 9.72478 2.85059 9.72478ZM6.45048 10.9247C6.45048 11.5874 5.91322 12.1247 5.25048 12.1247C4.58774 12.1247 4.05048 11.5874 4.05048 10.9247C4.05048 10.2619 4.58774 9.72467 5.25048 9.72467C5.91322 9.72467 6.45048 10.2619 6.45048 10.9247ZM10.051 12.1247C10.7137 12.1247 11.251 11.5874 11.251 10.9247C11.251 10.2619 10.7137 9.72467 10.051 9.72467C9.38822 9.72467 8.85096 10.2619 8.85096 10.9247C8.85096 11.5874 9.38822 12.1247 10.051 12.1247ZM16.05 10.9247C16.05 11.5874 15.5128 12.1247 14.85 12.1247C14.1873 12.1247 13.65 11.5874 13.65 10.9247C13.65 10.2619 14.1873 9.72467 14.85 9.72467C15.5128 9.72467 16.05 10.2619 16.05 10.9247ZM17.2506 14.5246C17.9134 14.5246 18.4506 13.9873 18.4506 13.3246C18.4506 12.6618 17.9134 12.1246 17.2506 12.1246C16.5879 12.1246 16.0506 12.6618 16.0506 13.3246C16.0506 13.9873 16.5879 14.5246 17.2506 14.5246ZM13.6508 13.3246C13.6508 13.9873 13.1136 14.5246 12.4508 14.5246C11.7881 14.5246 11.2508 13.9873 11.2508 13.3246C11.2508 12.6618 11.7881 12.1246 12.4508 12.1246C13.1136 12.1246 13.6508 12.6618 13.6508 13.3246ZM7.64966 14.5246C8.3124 14.5246 8.84966 13.9873 8.84966 13.3246C8.84966 12.6618 8.3124 12.1246 7.64966 12.1246C6.98692 12.1246 6.44966 12.6618 6.44966 13.3246C6.44966 13.9873 6.98692 14.5246 7.64966 14.5246ZM4.05059 13.3246C4.05059 13.9873 3.51333 14.5246 2.85059 14.5246C2.18785 14.5246 1.65059 13.9873 1.65059 13.3246C1.65059 12.6618 2.18785 12.1246 2.85059 12.1246C3.51333 12.1246 4.05059 12.6618 4.05059 13.3246Z" fill="url(#paint0_linear_361_6213)"/>
</g>
</g>
</g>
<defs>
<filter id="filter0_d_361_6213" x="1.65039" y="2.52466" width="16.8003" height="13.808" filterUnits="userSpaceOnUse" color-interpolation-filters="sRGB">
<feFlood flood-opacity="0" result="BackgroundImageFix"/>
<feColorMatrix in="SourceAlpha" type="matrix" values="0 0 0 0 0 0 0 0 0 0 0 0 0 0 0 0 0 0 127 0" result="hardAlpha"/>
<feOffset dy="1.80804"/>
<feColorMatrix type="matrix" values="0 0 0 0 0 0 0 0 0 0 0 0 0 0 0 0 0 0 0.06 0"/>
<feBlend mode="normal" in2="BackgroundImageFix" result="effect1_dropShadow_361_6213"/>
<feBlend mode="normal" in="SourceGraphic" in2="effect1_dropShadow_361_6213" result="shape"/>
</filter>
<linearGradient id="paint0_linear_361_6213" x1="1.65039" y1="2.52466" x2="1.65039" y2="14.5247" gradientUnits="userSpaceOnUse">
<stop stop-color="white"/>
<stop offset="1" stop-color="#F0F0F0"/>
</linearGradient>
</defs>
</svg>
