<svg width="32" height="32" viewBox="0 0 32 32" fill="none" xmlns="http://www.w3.org/2000/svg">
<path fill-rule="evenodd" clip-rule="evenodd" d="M15.9896 31.725H15.983C13.3292 31.7241 10.7215 31.0583 8.40545 29.7949L-0.000488281 32L2.24908 23.7832C0.861437 21.3784 0.131266 18.6505 0.132456 15.8558C0.135934 7.11299 7.24931 0 15.9894 0C20.2313 0.00183077 24.2126 1.65318 27.2064 4.65046C30.2002 7.64758 31.848 11.6315 31.8463 15.8683C31.8428 24.6092 24.7323 31.7215 15.9896 31.725ZM8.79462 26.9244L9.27588 27.2101C11.2994 28.4109 13.619 29.0463 15.984 29.0472H15.9893C23.2535 29.0472 29.1658 23.1347 29.1687 15.8675C29.1701 12.3459 27.8005 9.03466 25.3122 6.54344C22.8239 4.05222 19.5147 2.67961 15.9945 2.67839C8.72468 2.67839 2.81229 8.59024 2.80941 15.8569C2.80839 18.3472 3.50518 20.7725 4.82447 22.8708L5.13784 23.3695L3.80641 28.233L8.79462 26.9244ZM23.9783 19.6392C23.8793 19.4739 23.6152 19.3748 23.219 19.1764C22.8228 18.9781 20.8748 18.0197 20.5116 17.8873C20.1485 17.7551 19.8842 17.6891 19.6202 18.0856C19.3561 18.4822 18.5968 19.3748 18.3656 19.6392C18.1345 19.9035 17.9034 19.9367 17.5073 19.7383C17.1111 19.54 15.8344 19.1217 14.321 17.7718C13.1432 16.7212 12.348 15.4238 12.1169 15.0271C11.8858 14.6304 12.0923 14.4161 12.2906 14.2185C12.4689 14.0409 12.6869 13.7556 12.8849 13.5243C13.083 13.293 13.1491 13.1277 13.2811 12.8634C13.4132 12.5989 13.3472 12.3676 13.2481 12.1693C13.1491 11.9709 12.3567 10.0207 12.0265 9.22737C11.7049 8.45479 11.3783 8.55944 11.1351 8.54724C10.9042 8.53564 10.6398 8.5332 10.3757 8.5332C10.1116 8.5332 9.68232 8.63237 9.31915 9.02904C8.95599 9.4257 7.93245 10.3843 7.93245 12.3343C7.93245 14.2846 9.35215 16.1686 9.55027 16.433C9.74836 16.6975 12.3441 20.6994 16.3187 22.4156C17.264 22.8238 18.0019 23.0676 18.5774 23.2502C19.5265 23.5518 20.3903 23.5092 21.0729 23.4072C21.8342 23.2935 23.417 22.4488 23.7473 21.5233C24.0773 20.5977 24.0773 19.8044 23.9783 19.6392Z" fill="#005F5D"/>
</svg>
