<svg width="32" height="32" viewBox="0 0 32 32" fill="none" xmlns="http://www.w3.org/2000/svg">
<path fill-rule="evenodd" clip-rule="evenodd" d="M15.9967 28.7861H15.9914C13.8344 28.7854 11.7148 28.2442 9.83236 27.2174L3 29.0096L4.82845 22.331C3.70057 20.3763 3.10709 18.1592 3.10806 15.8876C3.11088 8.78144 8.89264 3 15.9966 3C19.4444 3.00149 22.6804 4.34371 25.1138 6.77989C27.5471 9.21596 28.8865 12.4541 28.8851 15.8978C28.8823 23.0024 23.1028 28.7832 15.9967 28.7861ZM10.1489 24.8842L10.5401 25.1164C12.1848 26.0924 14.0702 26.6088 15.9924 26.6096H15.9968C21.9011 26.6096 26.7066 21.8039 26.709 15.8972C26.7101 13.0348 25.5969 10.3434 23.5744 8.31851C21.5519 6.29365 18.8623 5.17799 16.001 5.17699C10.0921 5.17699 5.28649 9.98215 5.28415 15.8885C5.28332 17.9126 5.84967 19.8839 6.922 21.5894L7.1767 21.9947L6.09452 25.9478L10.1489 24.8842ZM22.4897 18.9627C22.4092 18.8284 22.1946 18.7478 21.8725 18.5866C21.5505 18.4254 19.9672 17.6464 19.672 17.5388C19.3768 17.4314 19.1621 17.3777 18.9474 17.7C18.7328 18.0224 18.1156 18.7478 17.9277 18.9627C17.7399 19.1776 17.552 19.2046 17.2301 19.0433C16.908 18.8821 15.8704 18.5421 14.6403 17.4449C13.6829 16.591 13.0366 15.5364 12.8488 15.214C12.6609 14.8916 12.8287 14.7174 12.99 14.5568C13.1348 14.4125 13.312 14.1806 13.473 13.9926C13.634 13.8046 13.6877 13.6702 13.795 13.4554C13.9024 13.2404 13.8487 13.0524 13.7682 12.8912C13.6877 12.73 13.0437 11.1448 12.7753 10.5C12.5139 9.87205 12.2484 9.95712 12.0507 9.9472C11.8631 9.93778 11.6482 9.93579 11.4335 9.93579C11.2188 9.93579 10.8699 10.0164 10.5747 10.3388C10.2796 10.6612 9.44764 11.4403 9.44764 13.0254C9.44764 14.6105 10.6016 16.1418 10.7626 16.3567C10.9236 16.5717 13.0334 19.8245 16.264 21.2194C17.0323 21.5512 17.6321 21.7494 18.0998 21.8978C18.8713 22.1429 19.5734 22.1083 20.1282 22.0254C20.747 21.9329 22.0335 21.2464 22.302 20.4942C22.5702 19.7418 22.5702 19.097 22.4897 18.9627Z" fill="white"/>
</svg>
