<svg width="24" height="24" viewBox="0 0 24 24" fill="none" xmlns="http://www.w3.org/2000/svg">
<path fill-rule="evenodd" clip-rule="evenodd" d="M12.0293 18.8797H12.0264C10.8598 18.8793 9.71344 18.588 8.69529 18.0353L5 19L5.98892 15.4051C5.37891 14.353 5.05792 13.1596 5.05844 11.9369C5.05997 8.11193 8.18704 5 12.0292 5C13.894 5.0008 15.6442 5.72327 16.9603 7.03457C18.2763 8.34582 19.0007 10.0888 19 11.9424C18.9985 15.7665 15.8726 18.8781 12.0293 18.8797V18.8797ZM8.8664 16.8359L9.07796 16.9615C9.96752 17.4894 10.9872 17.7687 12.0269 17.7691H12.0292C15.2226 17.7691 17.8217 15.17 17.8229 11.9753C17.8235 10.4272 17.2215 8.97152 16.1276 7.87637C15.0337 6.78122 13.579 6.17781 12.0315 6.17728C8.83566 6.17728 6.23654 8.77615 6.23528 11.9706C6.23483 13.0654 6.54114 14.1315 7.12111 15.054L7.25886 15.2732L6.67356 17.4112L8.8664 16.8359ZM15.5412 13.6333C15.4977 13.5607 15.3816 13.5171 15.2074 13.4299C15.0332 13.3427 14.1769 12.9214 14.0172 12.8632C13.8576 12.8051 13.7415 12.7761 13.6254 12.9504C13.5093 13.1247 13.1755 13.5171 13.0739 13.6333C12.9723 13.7496 12.8706 13.7642 12.6965 13.6769C12.5224 13.5898 11.9611 13.4059 11.2958 12.8124C10.7781 12.3506 10.4285 11.7802 10.3269 11.6059C10.2253 11.4315 10.3161 11.3372 10.4033 11.2504C10.4816 11.1723 10.5775 11.0469 10.6645 10.9452C10.7516 10.8436 10.7806 10.7709 10.8387 10.6547C10.8968 10.5384 10.8677 10.4367 10.8242 10.3495C10.7806 10.2624 10.4323 9.40502 10.2872 9.05627C10.1458 8.71664 10.0022 8.76265 9.89528 8.75728C9.7938 8.75219 9.67756 8.75111 9.56146 8.75111C9.44535 8.75111 9.25664 8.79471 9.097 8.96908C8.93735 9.14346 8.4874 9.56485 8.4874 10.4221C8.4874 11.2794 9.1115 12.1077 9.1986 12.2239C9.28568 12.3402 10.4268 14.0994 12.174 14.8539C12.5896 15.0333 12.914 15.1405 13.167 15.2208C13.5842 15.3534 13.9639 15.3346 14.264 15.2898C14.5986 15.2398 15.2945 14.8685 15.4397 14.4616C15.5847 14.0547 15.5847 13.706 15.5412 13.6333V13.6333Z" fill="#005F5D"/>
</svg>
